<svg xmlns="http://www.w3.org/2000/svg" xmlns:xlink="http://www.w3.org/1999/xlink" id="svgObj" preserveAspectRatio="none" x="0" y="0" width="1024" height="768" viewBox="0 0 1024 768">
    <defs>
        <!--bgm off btn-->
        <filter id="bgmOff_Filter_1" x="-20%" y="-20%" width="140%" height="140%" color-interpolation-filters="sRGB">
            <feColorMatrix in="SourceGraphic" type="matrix" values="0.7 0 0 0 0 0 0.7 0 0 0 0 0 0.7 0 0 0 0 0 1 0" result="result1"/>
        </filter>
        <g id="bgmOffLayer2_0">
            <path fill="#000000" fill-opacity="0.5019607843137255" stroke="none" d=" M 28.25 -19.35 Q 28.25 -27.55 20.15 -27.55 L -20.05 -27.55 Q -28.2 -27.55 -28.2 -19.35 L -28.2 19.5 Q -28.2 27.6 -20.05 27.6 L 20.15 27.6 Q 28.25 27.6 28.25 19.5 L 28.25 -19.35 M -23.75 -21.4 Q -23.8 -21.25 -23.8 -21 -24.05 -20.4 -24.1 -19.7 -24.05 -20.7 -23.75 -21.4 Z"/>
        </g>
        <g id="bgmOffLayer1_0">
            <path fill="#FFFFFF" stroke="none" d=" M 26.55 -18.2 Q 26.55 -25.9 18.95 -25.9 L -18.85 -25.9 Q -26.5 -25.9 -26.5 -18.2 L -26.5 18.35 Q -26.5 25.95 -18.85 25.95 L 18.95 25.95 Q 26.55 25.95 26.55 18.35 L 26.55 -18.2 M -22.3 -20.1 Q -22.35 -19.95 -22.35 -19.75 -22.6 -19.15 -22.65 -18.5 -22.6 -19.45 -22.3 -20.1 Z"/>
        </g>
        <g id="bgmOffLayer0_0">
            <path fill="#FFBC30" stroke="none" d=" M 38.35 6.45 Q 38.35 5 37.35 4 36.35 3 34.9 3 L 6.45 3 Q 5 3 4 4 3 5 3 6.45 L 3 34.95 Q 3 36.4 4 37.4 5 38.35 6.45 38.35 L 34.9 38.35 Q 36.35 38.35 37.35 37.4 38.35 36.4 38.35 34.95 L 38.35 6.45 Z"/>
        </g>
        <g id="bgmOffLayer0_1">
            <path fill="#FFE5A3" stroke="none" d=" M 38.5 14.4 L 38.5 6.05 Q 38.5 3.1 35.55 3.1 L 6.1 3.1 Q 3.15 3.1 3.15 6.05 L 3.15 14.4 Q 20.85 6.7 38.5 14.4 Z"/>
        </g>
        <g id="bgmOffLayer0_2">
            <path fill="#884400" stroke="none" d=" M 41.35 34.95 L 41.35 6.45 Q 41.35 0.5 35.4 0.5 L 5.95 0.5 Q 0 0.5 0 6.45 L 0 34.95 Q 0 40.85 5.95 40.85 L 35.4 40.85 Q 41.35 40.85 41.35 34.95 M 35.4 3.5 Q 38.35 3.5 38.35 6.45 L 38.35 34.95 Q 38.35 37.85 35.4 37.85 L 5.95 37.85 Q 3 37.85 3 34.95 L 3 6.45 Q 3 3.5 5.95 3.5 L 35.4 3.5 Z"/>
        </g>
        <g id="bgmOffLayer0_0M_0">
            <path fill="#B00000" stroke="none" d=" M 26.55 21.55 L 26.5 20.9 Q 26.5 20.7 26.45 20.55 L 24.9 0 7.65 3.9 9.1 22.9 Q 7.9 22.5 6.3 22.65 5.5 22.7 4.65 22.85 2.45 23.45 1.05 24.6 -0.25 25.7 0.05 26.85 0.05 27 0.1 27.15 0 27.5 0.1 27.9 0.35 28.75 1.5 29.2 2.65 29.65 4.35 29.5 5.15 29.45 6.05 29.25 8.25 28.7 9.6 27.55 10.9 26.4 10.65 25.3 L 10.6 24.65 Q 10.65 24.45 10.6 24.25 L 9.6 10.8 24 7.25 24.9 19.2 Q 23.8 18.8 22.15 18.95 21.35 19 20.45 19.15 18.25 19.75 16.95 20.9 15.65 21.95 15.85 23.1 15.9 23.2 15.95 23.35 15.9 23.75 15.9 24.15 16.2 25 17.3 25.45 18.5 25.9 20.2 25.75 21 25.7 21.9 25.55 24.1 24.9 25.45 23.8 26.75 22.65 26.55 21.55 Z"/>
        </g>
        <g id="bgmOffLayer0_0M_1">
            <path fill="#B00000" stroke="none" d=" M 26.45 21 Q 26.5 20.8 26.45 20.6 L 24.9 0.05 7.7 3.9 9.1 22.95 Q 7.95 22.6 6.35 22.7 5.55 22.8 4.7 22.95 2.45 23.5 1.1 24.65 -0.2 25.8 0.05 26.9 0.1 27.05 0.15 27.2 0 27.55 0.15 27.95 0.35 28.85 1.55 29.25 2.7 29.75 4.4 29.6 5.2 29.55 6.1 29.35 8.3 28.75 9.6 27.65 10.9 26.5 10.65 25.35 L 10.6 24.7 Q 10.65 24.5 10.6 24.3 L 9.55 10.85 24.05 7.3 24.95 19.2 Q 23.85 18.85 22.2 18.95 21.4 19 20.5 19.2 18.3 19.75 16.95 20.9 15.7 22 15.85 23.15 15.95 23.3 16 23.45 15.9 23.8 15.95 24.2 16.2 25.1 17.35 25.5 18.55 25.95 20.25 25.85 21.05 25.8 21.95 25.6 24.15 25 25.5 23.9 26.75 22.75 26.5 21.65 L 26.45 21 Z"/>
        </g>
        <path id="bgmOffLayer0_0M_1_stroke" stroke="#FFFFFF" stroke-width="4" stroke-linejoin="round" stroke-linecap="round" fill="none" d=" M 26.5 20.9 Q 26.5 20.7 26.45 20.55 L 24.9 0 7.65 3.9 9.1 22.9 Q 7.9 22.5 6.3 22.65 5.5 22.7 4.65 22.85 2.45 23.45 1.05 24.6 -0.25 25.7 0.05 26.85 0.05 27 0.1 27.15 0 27.5 0.1 27.9 0.35 28.75 1.5 29.2 2.65 29.65 4.35 29.5 5.15 29.45 6.05 29.25 8.25 28.7 9.6 27.55 10.9 26.4 10.65 25.3 L 10.6 24.65 Q 10.65 24.45 10.6 24.25 L 9.6 10.8 24 7.25 24.9 19.2 Q 23.8 18.8 22.15 18.95 21.35 19 20.45 19.15 18.25 19.75 16.95 20.9 15.65 21.95 15.85 23.1 15.9 23.2 15.95 23.35 15.9 23.75 15.9 24.15 16.2 25 17.3 25.45 18.5 25.9 20.2 25.75 21 25.7 21.9 25.55 24.1 24.9 25.45 23.8 26.75 22.65 26.55 21.55 L 26.5 20.9 Z"/>
        <path id="bgmOffLayer0_1_stroke" stroke="#5F2F00" stroke-width="8" stroke-linejoin="round" stroke-linecap="round" fill="none" d=" M 246.05 30.05 L 298 81.625"/>
        <!--bgm on btn-->
        <g id="bgmOnLayer2_0">
            <path fill="#000000" fill-opacity="0.5019607843137255" stroke="none" d=" M 28.25 -19.35 Q 28.25 -27.55 20.15 -27.55 L -20.05 -27.55 Q -28.2 -27.55 -28.2 -19.35 L -28.2 19.5 Q -28.2 27.6 -20.05 27.6 L 20.15 27.6 Q 28.25 27.6 28.25 19.5 L 28.25 -19.35 M -23.75 -21.4 Q -23.8 -21.25 -23.8 -21 -24.05 -20.4 -24.1 -19.7 -24.05 -20.7 -23.75 -21.4 Z"/>
        </g>
        <g id="bgmOnLayer1_0">
            <path fill="#FFFFFF" stroke="none" d=" M 26.55 -18.2 Q 26.55 -25.9 18.95 -25.9 L -18.85 -25.9 Q -26.5 -25.9 -26.5 -18.2 L -26.5 18.35 Q -26.5 25.95 -18.85 25.95 L 18.95 25.95 Q 26.55 25.95 26.55 18.35 L 26.55 -18.2 M -22.3 -20.1 Q -22.35 -19.95 -22.35 -19.75 -22.6 -19.15 -22.65 -18.5 -22.6 -19.45 -22.3 -20.1 Z"/>
        </g>
        <g id="bgmOnLayer0_0">
            <path fill="#FFBC30" stroke="none" d=" M 38.35 6.45 Q 38.35 5 37.35 4 36.35 3 34.9 3 L 6.45 3 Q 5 3 4 4 3 5 3 6.45 L 3 34.95 Q 3 36.4 4 37.4 5 38.35 6.45 38.35 L 34.9 38.35 Q 36.35 38.35 37.35 37.4 38.35 36.4 38.35 34.95 L 38.35 6.45 Z"/>
        </g>
        <g id="bgmOnLayer0_1">
            <path fill="#FFE5A3" stroke="none" d=" M 38.5 14.4 L 38.5 6.05 Q 38.5 3.1 35.55 3.1 L 6.1 3.1 Q 3.15 3.1 3.15 6.05 L 3.15 14.4 Q 20.85 6.7 38.5 14.4 Z"/>
        </g>
        <g id="bgmOnLayer0_2">
            <path fill="#884400" stroke="none" d=" M 41.35 34.95 L 41.35 6.45 Q 41.35 0.5 35.4 0.5 L 5.95 0.5 Q 0 0.5 0 6.45 L 0 34.95 Q 0 40.85 5.95 40.85 L 35.4 40.85 Q 41.35 40.85 41.35 34.95 M 35.4 3.5 Q 38.35 3.5 38.35 6.45 L 38.35 34.95 Q 38.35 37.85 35.4 37.85 L 5.95 37.85 Q 3 37.85 3 34.95 L 3 6.45 Q 3 3.5 5.95 3.5 L 35.4 3.5 Z"/>
        </g>
        <g id="bgmOnLayer0_0M_0">
            <path fill="#B00000" stroke="none" d=" M 26.55 21.55 L 26.5 20.9 Q 26.5 20.7 26.45 20.55 L 24.9 0 7.65 3.9 9.1 22.9 Q 7.9 22.5 6.3 22.65 5.5 22.7 4.65 22.85 2.45 23.45 1.05 24.6 -0.25 25.7 0.05 26.85 0.05 27 0.1 27.15 0 27.5 0.1 27.9 0.35 28.75 1.5 29.2 2.65 29.65 4.35 29.5 5.15 29.45 6.05 29.25 8.25 28.7 9.6 27.55 10.9 26.4 10.65 25.3 L 10.6 24.65 Q 10.65 24.45 10.6 24.25 L 9.6 10.8 24 7.25 24.9 19.2 Q 23.8 18.8 22.15 18.95 21.35 19 20.45 19.15 18.25 19.75 16.95 20.9 15.65 21.95 15.85 23.1 15.9 23.2 15.95 23.35 15.9 23.75 15.9 24.15 16.2 25 17.3 25.45 18.5 25.9 20.2 25.75 21 25.7 21.9 25.55 24.1 24.9 25.45 23.8 26.75 22.65 26.55 21.55 Z"/>
        </g>
        <g id="bgmOnLayer0_0M_1">
            <path fill="#B00000" stroke="none" d=" M 26.45 21 Q 26.5 20.8 26.45 20.6 L 24.9 0.05 7.7 3.9 9.1 22.95 Q 7.95 22.6 6.35 22.7 5.55 22.8 4.7 22.95 2.45 23.5 1.1 24.65 -0.2 25.8 0.05 26.9 0.1 27.05 0.15 27.2 0 27.55 0.15 27.95 0.35 28.85 1.55 29.25 2.7 29.75 4.4 29.6 5.2 29.55 6.1 29.35 8.3 28.75 9.6 27.65 10.9 26.5 10.65 25.35 L 10.6 24.7 Q 10.65 24.5 10.6 24.3 L 9.55 10.85 24.05 7.3 24.95 19.2 Q 23.85 18.85 22.2 18.95 21.4 19 20.5 19.2 18.3 19.75 16.95 20.9 15.7 22 15.85 23.15 15.95 23.3 16 23.45 15.9 23.8 15.95 24.2 16.2 25.1 17.35 25.5 18.55 25.95 20.25 25.85 21.05 25.8 21.95 25.6 24.15 25 25.5 23.9 26.75 22.75 26.5 21.65 L 26.45 21 Z"/>
        </g>
        <path id="bgmOnLayer0_0M_1_stroke" stroke="#FFFFFF" stroke-width="4" stroke-linejoin="round" stroke-linecap="round" fill="none" d=" M 26.5 20.9 Q 26.5 20.7 26.45 20.55 L 24.9 0 7.65 3.9 9.1 22.9 Q 7.9 22.5 6.3 22.65 5.5 22.7 4.65 22.85 2.45 23.45 1.05 24.6 -0.25 25.7 0.05 26.85 0.05 27 0.1 27.15 0 27.5 0.1 27.9 0.35 28.75 1.5 29.2 2.65 29.65 4.35 29.5 5.15 29.45 6.05 29.25 8.25 28.7 9.6 27.55 10.9 26.4 10.65 25.3 L 10.6 24.65 Q 10.65 24.45 10.6 24.25 L 9.6 10.8 24 7.25 24.9 19.2 Q 23.8 18.8 22.15 18.95 21.35 19 20.45 19.15 18.25 19.75 16.95 20.9 15.65 21.95 15.85 23.1 15.9 23.2 15.95 23.35 15.9 23.75 15.9 24.15 16.2 25 17.3 25.45 18.5 25.9 20.2 25.75 21 25.7 21.9 25.55 24.1 24.9 25.45 23.8 26.75 22.65 26.55 21.55 L 26.5 20.9 Z"/>
        <!--start animate-->
        <!-- <image id="UseStart" width="225" height="90" href="undefined/Object/start_txt.png"/>
        <g id="StartObj_1" transform="translate(48,15)" style="display: block;">
            <use xlink:href="#UseStart"/>
            <animateTransform id="a1" attributeName="transform" type="translate" dur="0.2s" begin="0.1s" from="0,0" to="-115,-50" repeatCount="1" fill="freeze" additive="sum"/>
            <animateTransform id="b1" attributeName="transform" type="scale" dur="0.2s" begin="0.1s" from="1" to="2" repeatCount="1" fill="freeze" additive="sum"/>
        </g>
        <g id="StartObj_2" transform="translate(-70,-35), scale(2)" style="display: block;">
            <use xlink:href="#UseStart"/>
            <animateTransform id="a2" attributeName="transform" type="translate" dur="0.2s" begin="1s" from="0,0" to="118,47" repeatCount="1" fill="freeze" additive="sum"/>
            <animateTransform id="b2" attributeName="transform" type="scale" dur="0.2s" begin="1s" from="1" to="0" repeatCount="1" fill="freeze" additive="sum"/>
        </g> -->
        <image id="UsePic" href="game01.png"/>
        <image id="UseBg1" width="1075" height="810" href="game01bg1.png"/>
        <image id="UseBg2" width="1075" height="810" href="game01bg2.png"/>
        <!-- <image id="UseClock" width="170" height="170" href="undefined/clock.png"/> -->
        <!-- <image id="UseBrick" href="undefined/brick.png"/> -->

        <clipPath id="ClockClip"><rect x="550" y="295" width="240" height="80"/></clipPath>
        <clipPath id="QuesMapClip"><rect x="20" y="23" width="508" height="506"/></clipPath>
        <clipPath id="BrickClip0"><rect x="550" y="23" width="140" height="70"/></clipPath>
        <clipPath id="BrickClip1"><rect x="700" y="103" width="70" height="70"/></clipPath>
        <clipPath id="BrickClip2_1"><rect x="790" y="22" width="70" height="140"/></clipPath>
        <clipPath id="BrickClip2_2"><rect x="550" y="103" width="140" height="70"/></clipPath>
        <clipPath id="BrickClip3_1"><rect x="890" y="20" width="70" height="210"/></clipPath>
        <clipPath id="BrickClip3_2"><rect x="550" y="202" width="210" height="70"/></clipPath>
        <clipPath id="ReplayClip"><rect x="550" y="400" width="190" height="110"/></clipPath>
        <g id="AnsObj" transform="translate(0,0)">
            <use xlink:href="#UsePic" transform="scale(1.195) translate(-0,-0)" clip-path="url(#BrickClip1)"/>
            <rect x="0" y="0" width="80" height="80" fill="#FFFFFF00"/>
        </g>
    </defs>    
    <style>
        #SecTxt, #TitleTxt_1, #TitleTxt_2 {
            user-select:none;
            -webkit-user-select:none;
            -moz-user-select:none;
        }
    </style>
    <g id="bg"><use xlink:href="#UseBg1" id="bg" transform="translate(-25, -35)"/></g>
    <g id="svgMain" transform="translate(0, 0)">
        <g id="QuesSec" transform="translate(730, 120)">
            <g><use xlink:href="#UsePic" transform="translate(-550,-300)" clip-path="url(#ClockClip)"/></g>
            <g><text id="SecTxt" x="150" y="40" width="180" fill="#FF0000" stroke="#FFFFFF" stroke-width="1" dominant-baseline="middle" text-anchor="middle" style="font-size: 3rem; font-family: Arial; font-weight: 666;">999</text></g>
        </g>
        <g id="svgTitle" transform="translate(0, 30)">
            <g id="TitleText">
                <text id="TitleTxt_1" x="30" y="20" width="180" fill="#000000" stroke="none" stroke-width="1" style="font-size: 2rem; font-family: Arial, '文鼎細圓', '微軟正黑體'; font-weight: 900; filter: drop-shadow(-1px -1px 1px #FFF) drop-shadow(-1px 1px 1px #FFF) drop-shadow(1px -1px 1px #FFF) drop-shadow(1px 1px 1px #FFF);"/>
                <text id="TitleTxt_2" x="30" y="60" width="180" fill="#000000" stroke="none" stroke-width="1" style="font-size: 2rem; font-family: Arial, '文鼎細圓', '微軟正黑體'; font-weight: 900; filter: drop-shadow(-1px -1px 1px #FFF) drop-shadow(-1px 1px 1px #FFF) drop-shadow(1px -1px 1px #FFF) drop-shadow(1px 1px 1px #FFF);"/>
            </g>
        </g>
        <g id="QuesMap" transform="translate(30,70)">
            <use xlink:href="#UsePic" transform="scale(1.22) translate(-20,-2)" clip-path="url(#QuesMapClip)"/>
        </g>
        <g id="AnsBox" transform="translate(45,110)"></g>
        <g id="QuesStart" transform="translate(360, 330)">
            <g id="StartBtn" transform="translate(0,0)" class="ee-obj bsstart" style="display: none;">
                <g id=".__E5.__A0.__B4.__E6.__99.__AF-1" overflow="visible" transform="scale(0.90)">
                    <g id=".__E9.__96.__8B.__E5.__A7.__8B.__E9.__81.__8A.__E6.__88.__B2bt-f0" transform="translate(24.65 22.75)">
                        <g id="bt1" transform="matrix(.871 0 0 .925 0 0)">
                            <path fill="#333" fill-opacity=".533" stroke="none" d="M312.2 -10L28.4 -10Q-10 -10 -10 28.4L-10 78.05Q-10 116.45 28.4 116.45L312.2 116.45Q350.6 116.45 350.6 78.05L350.6 28.4Q350.6 -10 312.2 -10M330.6 28.4L330.6 34.05 330.6 78.05Q330.6 96.45 312.2 96.45L28.4 96.45Q10 96.45 10 78.05L10 34.1 10 28.4Q10 10 28.4 10L312.2 10Q330.6 10 330.6 28.4Z"/>
                            <path fill="#FFBA32" stroke="none" d="M330.6 78.05L330.6 34.05Q168.545 67.395 10 34.1L10 78.05Q10 96.45 28.4 96.45L312.2 96.45Q330.6 96.45 330.6 78.05Z"/>
                            <path fill="#FFE190" stroke="none" d="M330.6 34.05L330.6 28.4Q330.6 10 312.2 10L28.4 10Q10 10 10 28.4L10 34.1Q168.545 67.395 330.6 34.05Z"/>
                            <path fill="#630" stroke="none" d="M312.2 -7.5L28.4 -7.5Q-7.5 -7.5 -7.5 28.4L-7.5 78.05Q-7.5 113.95 28.4 113.95L312.2 113.95Q348.1 113.95 348.1 78.05L348.1 28.4Q348.1 -7.5 312.2 -7.5M333.1 28.4L333.1 33.55 333.1 78.05Q333.1 98.95 312.2 98.95L28.4 98.95Q7.5 98.95 7.5 78.05L7.5 33.55 7.5 28.4Q7.5 7.5 28.4 7.5L312.2 7.5Q333.1 7.5 333.1 28.4Z"/>
                            <path fill="#FFBA32" stroke="none" d="M333.1 78.05L333.1 33.55Q168.491 67.918 7.5 33.55L7.5 78.05Q7.5 98.95 28.4 98.95L312.2 98.95Q333.1 98.95 333.1 78.05Z"/>
                            <path fill="#FFE190" stroke="none" d="M333.1 33.55L333.1 28.4Q333.1 7.5 312.2 7.5L28.4 7.5Q7.5 7.5 7.5 28.4L7.5 33.55Q168.491 67.918 333.1 33.55Z"/>
                            <g transform="translate(.15 -.2)" id="Layer12_0_FILL">
                                <path fill="#FFF" stroke="none" d="M312.2 -5L28.4 -5Q-5 -5 -5 28.4L-5 78.05Q-5 111.45 28.4 111.45L312.2 111.45Q345.6 111.45 345.6 78.05L345.6 28.4Q345.6 -5 312.2 -5M335.6 28.4L335.6 33 335.6 78.05Q335.6 101.45 312.2 101.45L28.4 101.45Q5 101.45 5 78.05L5 33.05 5 28.4Q5 5 28.4 5L312.2 5Q335.6 5 335.6 28.4Z"/>
                                <path fill="#FFBA32" stroke="none" d="M335.6 78.05L335.6 33Q168.437 68.449 5 33.05L5 78.05Q5 101.45 28.4 101.45L312.2 101.45Q335.6 101.45 335.6 78.05Z"/>
                                <path fill="#FFE190" stroke="none" d="M335.6 33L335.6 28.4Q335.6 5 312.2 5L28.4 5Q5 5 5 28.4L5 33.05Q168.437 68.449 335.6 33Z"/>
                            </g>
                            <g transform="translate(.15 -.2)" id="Layer13_0_FILL">
                                <path fill="#630" stroke="none" d="M312.2 -.5L28.4 -.5Q-.5 -.5 -.5 28.4L-.5 78.05Q-.5 106.95 28.4 106.95L312.2 106.95Q341.1 106.95 341.1 78.05L341.1 28.4Q341.1 -.5 312.2 -.5M340.1 28.4L340.1 32.05 340.1 78.05Q340.1 105.95 312.2 105.95L28.4 105.95Q.5 105.95 .5 78.05L.5 32.05 .5 28.4Q.5 .5 28.4 .5L312.2 .5Q340.1 .5 340.1 28.4Z"/>
                                <path fill="#FFBA32" stroke="none" d="M340.1 78.05L340.1 32.05Q168.332 69.427 .5 32.05L.5 78.05Q.5 105.95 28.4 105.95L312.2 105.95Q340.1 105.95 340.1 78.05Z"/>
                                <path fill="#FFE190" stroke="none" d="M340.1 32.05L340.1 28.4Q340.1 .5 312.2 .5L28.4 .5Q.5 .5 .5 28.4L.5 32.05Q168.332 69.427 340.1 32.05Z"/>
                            </g>
                        </g>
                        <g id=".__E9.__96.__8B.__E5.__A7.__8Bf1" transform="translate(150.95 51.35)">
                            <path fill="#9F590B" stroke="none" d="M-60.95 -27Q-64.4 -27 -66.75 -24.7 -69.1 -22.3 -69.1 -18.85 -69.1 -15.5 -66.75 -13.05 -64.4 -10.7 -60.95 -10.7L-55.8 -10.7 -55.65 19.5Q-55.65 22.95 -53.4 25.3 -51.1 27.65 -47.65 27.65 -44.3 27.65 -41.95 25.3 -39.7 22.95 -39.7 19.5L-39.5 -10.7 -34.4 -10.7Q-32.75 -10.7 -31.2 -11.35 -29.7 -12 -28.6 -13.05 -27.5 -14.15 -26.9 -15.65 -26.25 -17.15 -26.25 -18.85 -26.25 -22.3 -28.6 -24.7 -31 -27 -34.4 -27L-60.95 -27M-88.5 -25.15Q-90.7 -26.05 -92.95 -26.55 -95.15 -27 -96.85 -27 -101.15 -27 -104.6 -25.8 -108 -24.7 -110.45 -22.65 -112.95 -20.55 -114.3 -17.8 -115.7 -15 -116.05 -11.85 -116.45 -8.3 -115.85 -5.9 -115.3 -3.6 -114.3 -2.05 -113.3 -.55 -112.05 .3 -110.75 1.1 -109.85 1.55 -105.3 3.7 -101.9 5.5 -98.5 7.25 -96.85 8.3 -95.25 9.25 -95.35 10.65 -95.45 12 -96.85 12.3 -97.5 12.5 -99 12.25 -100.45 12 -101.65 10.5 -103.2 8.6 -105.1 7.8 -106.95 7.1 -108.75 7.2 -110.5 7.25 -112.05 7.95 -113.55 8.65 -114.3 9.6 -115.8 11.35 -116.05 13.3 -116.3 15.25 -115.65 17.2 -114.95 19.15 -113.5 20.9 -112.1 22.7 -110.25 24.1 -108.35 25.55 -105.2 26.65 -102.1 27.75 -96.65 27.65 -94.3 27.65 -91.4 26.9 -88.5 26.1 -85.8 24.45 -83.1 22.85 -81 20.3 -78.85 17.75 -78.15 14.2 -77.65 12.2 -77.9 10 -78.15 7.8 -79.4 5.55 -80.7 3.35 -83.1 1.15 -85.5 -1 -89.35 -2.8L-99 -8.3Q-99.75 -8.7 -100.2 -9.35 -100.65 -9.95 -100.55 -10.5 -100.45 -11.1 -99.75 -11.45 -99.05 -11.85 -97.75 -11.85 -96.75 -11.85 -96.1 -11.4 -95.5 -11 -95.15 -10.35 -94.75 -9.75 -94.35 -9.1 -94.05 -8.45 -93.5 -8.05 -92.2 -6.95 -90.6 -6.45 -89 -5.95 -87.35 -6 -85.7 -6.05 -84.15 -6.6 -82.6 -7.15 -81.35 -8.35 -80.25 -9.5 -79.65 -11 -79.1 -12.45 -79.05 -14.05 -78.95 -15.65 -79.4 -17.2 -79.9 -18.7 -80.95 -19.9 -82.25 -21.55 -84.3 -22.9 -86.3 -24.25 -88.5 -25.15M16.3 22.85Q17.65 19.85 16.4 16.55L1 -21.05Q-.25 -23.6 -2.15 -25.3 -4.05 -27 -6.8 -27L-7.8 -27Q-10.65 -27 -12.05 -26.15 -13.5 -25.25 -14.1 -24 -14.75 -22.75 -14.9 -21.35 -15.05 -20 -15.5 -19.05L-30.05 16.55Q-31.3 19.85 -29.95 22.85 -28.6 25.85 -25.3 27.05 -23.75 27.65 -22.15 27.6 -20.55 27.55 -19.1 26.95 -17.65 26.25 -16.55 25.1 -15.4 23.9 -14.8 22.35L-13.75 20.1 .1 20.1 1.15 22.35Q1.75 23.9 2.9 25.1 4.05 26.25 5.45 26.95 6.9 27.55 8.5 27.6 10.1 27.65 11.65 27.05 15 25.85 16.3 22.85M-6.8 2.9L-4.15 9.45 -9.5 9.45 -6.8 2.9M75.75 -24.7Q73.4 -22.3 73.4 -18.85 73.4 -15.5 75.75 -13.05 78.1 -10.7 81.55 -10.7L86.7 -10.7 86.85 19.5Q86.85 22.95 89.1 25.3 91.4 27.65 94.85 27.65 98.2 27.65 100.55 25.3 102.8 22.95 102.8 19.5L103 -10.7 108.1 -10.7Q109.75 -10.7 111.3 -11.35 112.8 -12 113.9 -13.05 115 -14.15 115.6 -15.65 116.25 -17.15 116.25 -18.85 116.25 -22.3 113.9 -24.7 111.5 -27 108.1 -27L81.55 -27Q78.1 -27 75.75 -24.7M28.25 -26.9Q27.25 -26.1 27.1 -24.8 26.95 -23.6 27.3 -22 27.65 -20.45 27.75 -18.85L27.75 19.45Q27.75 22.95 30.05 25.3 32.45 27.65 35.9 27.65 39.25 27.65 41.65 25.3 44.05 22.95 44.05 19.45L44.05 16.4 53.5 25.25Q56 27.75 59.3 27.65 62.6 27.55 65 25.25 66.1 24 66.8 22.35 67.45 20.7 67.45 19.1 67.45 17.5 66.85 16 66.25 14.55 64.85 13.6L60.85 11.35Q62.85 10.2 64.65 8.35 66.4 6.55 67.75 4.3 69.1 2.05 69.9 -.5 70.65 -3 70.65 -5.6 70.65 -10.1 68.9 -14.15 67.2 -18.2 64.2 -21.15 61.2 -24.15 57.2 -25.9 53.15 -27.65 48.6 -27.65L32.15 -27.65Q29.3 -27.65 28.25 -26.9M52.75 -9.45Q54.5 -7.75 54.5 -5.45 54.5 -3.05 52.75 -1.55 50.95 0 48.6 .1L44.05 .3 44.05 -11.4 48.6 -11.25Q50.95 -11.15 52.75 -9.45Z"/>
                            <path id="Layer14_0_1_STROKES" stroke="#630" stroke-width="10" stroke-linejoin="round" stroke-linecap="round" fill="none" d="M27.1 -24.8Q27.25 -26.1 28.25 -26.9 29.3 -27.65 32.15 -27.65L48.6 -27.65Q53.15 -27.65 57.2 -25.9 61.2 -24.15 64.2 -21.15 67.2 -18.2 68.9 -14.15 70.65 -10.1 70.65 -5.6 70.65 -3 69.9 -.5 69.1 2.05 67.75 4.3 66.4 6.55 64.65 8.35 62.85 10.2 60.85 11.35L64.85 13.6Q66.25 14.55 66.85 16 67.45 17.5 67.45 19.1 67.45 20.7 66.8 22.35 66.1 24 65 25.25 62.6 27.55 59.3 27.65 56 27.75 53.5 25.25L44.05 16.4 44.05 19.45Q44.05 22.95 41.65 25.3 39.25 27.65 35.9 27.65 32.45 27.65 30.05 25.3 27.75 22.95 27.75 19.45L27.75 -18.85Q27.65 -20.45 27.3 -22 26.95 -23.6 27.1 -24.8ZM54.5 -5.45Q54.5 -7.75 52.75 -9.45 50.95 -11.15 48.6 -11.25L44.05 -11.4 44.05 .3 48.6 .1Q50.95 0 52.75 -1.55 54.5 -3.05 54.5 -5.45ZM75.75 -24.7Q78.1 -27 81.55 -27L108.1 -27Q111.5 -27 113.9 -24.7 116.25 -22.3 116.25 -18.85 116.25 -17.15 115.6 -15.65 115 -14.15 113.9 -13.05 112.8 -12 111.3 -11.35 109.75 -10.7 108.1 -10.7L103 -10.7 102.8 19.5Q102.8 22.95 100.55 25.3 98.2 27.65 94.85 27.65 91.4 27.65 89.1 25.3 86.85 22.95 86.85 19.5L86.7 -10.7 81.55 -10.7Q78.1 -10.7 75.75 -13.05 73.4 -15.5 73.4 -18.85 73.4 -22.3 75.75 -24.7ZM.1 20.1L-13.75 20.1 -14.8 22.35Q-15.4 23.9 -16.55 25.1 -17.65 26.25 -19.1 26.95 -20.55 27.55 -22.15 27.6 -23.75 27.65 -25.3 27.05 -28.6 25.85 -29.95 22.85 -31.3 19.85 -30.05 16.55L-15.5 -19.05Q-15.05 -20 -14.9 -21.35 -14.75 -22.75 -14.1 -24 -13.5 -25.25 -12.05 -26.15 -10.65 -27 -7.8 -27L-6.8 -27Q-4.05 -27 -2.15 -25.3 -.25 -23.6 1 -21.05L16.4 16.55Q17.65 19.85 16.3 22.85 15 25.85 11.65 27.05 10.1 27.65 8.5 27.6 6.9 27.55 5.45 26.95 4.05 26.25 2.9 25.1 1.75 23.9 1.15 22.35L.1 20.1ZM-88.5 -25.15Q-86.3 -24.25 -84.3 -22.9 -82.25 -21.55 -80.95 -19.9 -79.9 -18.7 -79.4 -17.2 -78.95 -15.65 -79.05 -14.05 -79.1 -12.45 -79.65 -11 -80.25 -9.5 -81.35 -8.35 -82.6 -7.15 -84.15 -6.6 -85.7 -6.05 -87.35 -6 -89 -5.95 -90.6 -6.45 -92.2 -6.95 -93.5 -8.05 -94.05 -8.45 -94.35 -9.1 -94.75 -9.75 -95.15 -10.35 -95.5 -11 -96.1 -11.4 -96.75 -11.85 -97.75 -11.85 -99.05 -11.85 -99.75 -11.45 -100.45 -11.1 -100.55 -10.5 -100.65 -9.95 -100.2 -9.35 -99.75 -8.7 -99 -8.3L-89.35 -2.8Q-85.5 -1 -83.1 1.15 -80.7 3.35 -79.4 5.55 -78.15 7.8 -77.9 10 -77.65 12.2 -78.15 14.2 -78.85 17.75 -81 20.3 -83.1 22.85 -85.8 24.45 -88.5 26.1 -91.4 26.9 -94.3 27.65 -96.65 27.65 -102.1 27.75 -105.2 26.65 -108.35 25.55 -110.25 24.1 -112.1 22.7 -113.5 20.9 -114.95 19.15 -115.65 17.2 -116.3 15.25 -116.05 13.3 -115.8 11.35 -114.3 9.6 -113.55 8.65 -112.05 7.95 -110.5 7.25 -108.75 7.2 -106.95 7.1 -105.1 7.8 -103.2 8.6 -101.65 10.5 -100.45 12 -99 12.25 -97.5 12.5 -96.85 12.3 -95.45 12 -95.35 10.65 -95.25 9.25 -96.85 8.3 -98.5 7.25 -101.9 5.5 -105.3 3.7 -109.85 1.55 -110.75 1.1 -112.05 .3 -113.3 -.55 -114.3 -2.05 -115.3 -3.6 -115.85 -5.9 -116.45 -8.3 -116.05 -11.85 -115.7 -15 -114.3 -17.8 -112.95 -20.55 -110.45 -22.65 -108 -24.7 -104.6 -25.8 -101.15 -27 -96.85 -27 -95.15 -27 -92.95 -26.55 -90.7 -26.05 -88.5 -25.15ZM-66.75 -24.7Q-64.4 -27 -60.95 -27L-34.4 -27Q-31 -27 -28.6 -24.7 -26.25 -22.3 -26.25 -18.85 -26.25 -17.15 -26.9 -15.65 -27.5 -14.15 -28.6 -13.05 -29.7 -12 -31.2 -11.35 -32.75 -10.7 -34.4 -10.7L-39.5 -10.7 -39.7 19.5Q-39.7 22.95 -41.95 25.3 -44.3 27.65 -47.65 27.65 -51.1 27.65 -53.4 25.3 -55.65 22.95 -55.65 19.5L-55.8 -10.7 -60.95 -10.7Q-64.4 -10.7 -66.75 -13.05 -69.1 -15.5 -69.1 -18.85 -69.1 -22.3 -66.75 -24.7ZM-6.8 2.9L-9.5 9.45 -4.15 9.45 -6.8 2.9Z"/>
                            <path fill="#9F590B" stroke="none" d="M-66.75 -24.7Q-69.1 -22.3 -69.1 -18.85 -69.1 -15.5 -66.75 -13.05 -64.4 -10.7 -60.95 -10.7L-55.8 -10.7 -55.65 19.5Q-55.65 22.95 -53.4 25.3 -51.1 27.65 -47.65 27.65 -44.3 27.65 -41.95 25.3 -39.7 22.95 -39.7 19.5L-39.5 -10.7 -34.4 -10.7Q-32.75 -10.7 -31.2 -11.35 -29.7 -12 -28.6 -13.05 -27.5 -14.15 -26.9 -15.65 -26.25 -17.15 -26.25 -18.85 -26.25 -22.3 -28.6 -24.7 -31 -27 -34.4 -27L-60.95 -27Q-64.4 -27 -66.75 -24.7M-88.5 -25.15Q-90.7 -26.05 -92.95 -26.55 -95.15 -27 -96.85 -27 -101.15 -27 -104.6 -25.8 -108 -24.7 -110.45 -22.65 -112.95 -20.55 -114.3 -17.8 -115.7 -15 -116.05 -11.85 -116.45 -8.3 -115.85 -5.9 -115.3 -3.6 -114.3 -2.05 -113.3 -.55 -112.05 .3 -110.75 1.1 -109.85 1.55 -105.3 3.7 -101.9 5.5 -98.5 7.25 -96.85 8.3 -95.25 9.25 -95.35 10.65 -95.45 12 -96.85 12.3 -97.5 12.5 -99 12.25 -100.45 12 -101.65 10.5 -103.2 8.6 -105.1 7.8 -106.95 7.1 -108.75 7.2 -110.5 7.25 -112.05 7.95 -113.55 8.65 -114.3 9.6 -115.8 11.35 -116.05 13.3 -116.3 15.25 -115.65 17.2 -114.95 19.15 -113.5 20.9 -112.1 22.7 -110.25 24.1 -108.35 25.55 -105.2 26.65 -102.1 27.75 -96.65 27.65 -94.3 27.65 -91.4 26.9 -88.5 26.1 -85.8 24.45 -83.1 22.85 -81 20.3 -78.85 17.75 -78.15 14.2 -77.65 12.2 -77.9 10 -78.15 7.8 -79.4 5.55 -80.7 3.35 -83.1 1.15 -85.5 -1 -89.35 -2.8L-99 -8.3Q-99.75 -8.7 -100.2 -9.35 -100.65 -9.95 -100.55 -10.5 -100.45 -11.1 -99.75 -11.45 -99.05 -11.85 -97.75 -11.85 -96.75 -11.85 -96.1 -11.4 -95.5 -11 -95.15 -10.35 -94.75 -9.75 -94.35 -9.1 -94.05 -8.45 -93.5 -8.05 -92.2 -6.95 -90.6 -6.45 -89 -5.95 -87.35 -6 -85.7 -6.05 -84.15 -6.6 -82.6 -7.15 -81.35 -8.35 -80.25 -9.5 -79.65 -11 -79.1 -12.45 -79.05 -14.05 -78.95 -15.65 -79.4 -17.2 -79.9 -18.7 -80.95 -19.9 -82.25 -21.55 -84.3 -22.9 -86.3 -24.25 -88.5 -25.15M.1 20.1L1.15 22.35Q1.75 23.9 2.9 25.1 4.05 26.25 5.45 26.95 6.9 27.55 8.5 27.6 10.1 27.65 11.65 27.05 15 25.85 16.3 22.85 17.65 19.85 16.4 16.55L1 -21.05Q-.25 -23.6 -2.15 -25.3 -4.05 -27 -6.8 -27L-7.8 -27Q-10.65 -27 -12.05 -26.15 -13.5 -25.25 -14.1 -24 -14.75 -22.75 -14.9 -21.35 -15.05 -20 -15.5 -19.05L-30.05 16.55Q-31.3 19.85 -29.95 22.85 -28.6 25.85 -25.3 27.05 -23.75 27.65 -22.15 27.6 -20.55 27.55 -19.1 26.95 -17.65 26.25 -16.55 25.1 -15.4 23.9 -14.8 22.35L-13.75 20.1 .1 20.1M-4.15 9.45L-9.5 9.45 -6.5 -1.9 -4.15 9.45M75.75 -24.7Q73.4 -22.3 73.4 -18.85 73.4 -15.5 75.75 -13.05 78.1 -10.7 81.55 -10.7L86.7 -10.7 86.85 19.5Q86.85 22.95 89.1 25.3 91.4 27.65 94.85 27.65 98.2 27.65 100.55 25.3 102.8 22.95 102.8 19.5L103 -10.7 108.1 -10.7Q109.75 -10.7 111.3 -11.35 112.8 -12 113.9 -13.05 115 -14.15 115.6 -15.65 116.25 -17.15 116.25 -18.85 116.25 -22.3 113.9 -24.7 111.5 -27 108.1 -27L81.55 -27Q78.1 -27 75.75 -24.7M27.1 -24.8Q26.95 -23.6 27.3 -22 27.65 -20.45 27.75 -18.85L27.75 19.45Q27.75 22.95 30.05 25.3 32.45 27.65 35.9 27.65 39.25 27.65 41.65 25.3 44.05 22.95 44.05 19.45L44.05 16.4 53.5 25.25Q56 27.75 59.3 27.65 62.6 27.55 65 25.25 66.1 24 66.8 22.35 67.45 20.7 67.45 19.1 67.45 17.5 66.85 16 66.25 14.55 64.85 13.6L60.85 11.35Q62.85 10.2 64.65 8.35 66.4 6.55 67.75 4.3 69.1 2.05 69.9 -.5 70.65 -3 70.65 -5.6 70.65 -10.1 68.9 -14.15 67.2 -18.2 64.2 -21.15 61.2 -24.15 57.2 -25.9 53.15 -27.65 48.6 -27.65L32.15 -27.65Q29.3 -27.65 28.25 -26.9 27.25 -26.1 27.1 -24.8M54.5 -5.45Q54.5 -3.05 52.75 -1.55 50.95 0 48.6 .1L44.05 .3 44.05 -11.4 48.6 -11.25Q50.95 -11.15 52.75 -9.45 54.5 -7.75 54.5 -5.45Z"/>
                            <path id="Layer15_0_1_STROKES" stroke="#FFF" stroke-width="6" stroke-linejoin="round" stroke-linecap="round" fill="none" d="M27.3 -22Q26.95 -23.6 27.1 -24.8 27.25 -26.1 28.25 -26.9 29.3 -27.65 32.15 -27.65L48.6 -27.65Q53.15 -27.65 57.2 -25.9 61.2 -24.15 64.2 -21.15 67.2 -18.2 68.9 -14.15 70.65 -10.1 70.65 -5.6 70.65 -3 69.9 -.5 69.1 2.05 67.75 4.3 66.4 6.55 64.65 8.35 62.85 10.2 60.85 11.35L64.85 13.6Q66.25 14.55 66.85 16 67.45 17.5 67.45 19.1 67.45 20.7 66.8 22.35 66.1 24 65 25.25 62.6 27.55 59.3 27.65 56 27.75 53.5 25.25L44.05 16.4 44.05 19.45Q44.05 22.95 41.65 25.3 39.25 27.65 35.9 27.65 32.45 27.65 30.05 25.3 27.75 22.95 27.75 19.45L27.75 -18.85Q27.65 -20.45 27.3 -22ZM44.05 -11.4L44.05 .3 48.6 .1Q50.95 0 52.75 -1.55 54.5 -3.05 54.5 -5.45 54.5 -7.75 52.75 -9.45 50.95 -11.15 48.6 -11.25L44.05 -11.4ZM75.75 -24.7Q78.1 -27 81.55 -27L108.1 -27Q111.5 -27 113.9 -24.7 116.25 -22.3 116.25 -18.85 116.25 -17.15 115.6 -15.65 115 -14.15 113.9 -13.05 112.8 -12 111.3 -11.35 109.75 -10.7 108.1 -10.7L103 -10.7 102.8 19.5Q102.8 22.95 100.55 25.3 98.2 27.65 94.85 27.65 91.4 27.65 89.1 25.3 86.85 22.95 86.85 19.5L86.7 -10.7 81.55 -10.7Q78.1 -10.7 75.75 -13.05 73.4 -15.5 73.4 -18.85 73.4 -22.3 75.75 -24.7ZM16.3 22.85Q15 25.85 11.65 27.05 10.1 27.65 8.5 27.6 6.9 27.55 5.45 26.95 4.05 26.25 2.9 25.1 1.75 23.9 1.15 22.35L.1 20.1 -13.75 20.1 -14.8 22.35Q-15.4 23.9 -16.55 25.1 -17.65 26.25 -19.1 26.95 -20.55 27.55 -22.15 27.6 -23.75 27.65 -25.3 27.05 -28.6 25.85 -29.95 22.85 -31.3 19.85 -30.05 16.55L-15.5 -19.05Q-15.05 -20 -14.9 -21.35 -14.75 -22.75 -14.1 -24 -13.5 -25.25 -12.05 -26.15 -10.65 -27 -7.8 -27L-6.8 -27Q-4.05 -27 -2.15 -25.3 -.25 -23.6 1 -21.05L16.4 16.55Q17.65 19.85 16.3 22.85ZM-88.5 -25.15Q-86.3 -24.25 -84.3 -22.9 -82.25 -21.55 -80.95 -19.9 -79.9 -18.7 -79.4 -17.2 -78.95 -15.65 -79.05 -14.05 -79.1 -12.45 -79.65 -11 -80.25 -9.5 -81.35 -8.35 -82.6 -7.15 -84.15 -6.6 -85.7 -6.05 -87.35 -6 -89 -5.95 -90.6 -6.45 -92.2 -6.95 -93.5 -8.05 -94.05 -8.45 -94.35 -9.1 -94.75 -9.75 -95.15 -10.35 -95.5 -11 -96.1 -11.4 -96.75 -11.85 -97.75 -11.85 -99.05 -11.85 -99.75 -11.45 -100.45 -11.1 -100.55 -10.5 -100.65 -9.95 -100.2 -9.35 -99.75 -8.7 -99 -8.3L-89.35 -2.8Q-85.5 -1 -83.1 1.15 -80.7 3.35 -79.4 5.55 -78.15 7.8 -77.9 10 -77.65 12.2 -78.15 14.2 -78.85 17.75 -81 20.3 -83.1 22.85 -85.8 24.45 -88.5 26.1 -91.4 26.9 -94.3 27.65 -96.65 27.65 -102.1 27.75 -105.2 26.65 -108.35 25.55 -110.25 24.1 -112.1 22.7 -113.5 20.9 -114.95 19.15 -115.65 17.2 -116.3 15.25 -116.05 13.3 -115.8 11.35 -114.3 9.6 -113.55 8.65 -112.05 7.95 -110.5 7.25 -108.75 7.2 -106.95 7.1 -105.1 7.8 -103.2 8.6 -101.65 10.5 -100.45 12 -99 12.25 -97.5 12.5 -96.85 12.3 -95.45 12 -95.35 10.65 -95.25 9.25 -96.85 8.3 -98.5 7.25 -101.9 5.5 -105.3 3.7 -109.85 1.55 -110.75 1.1 -112.05 .3 -113.3 -.55 -114.3 -2.05 -115.3 -3.6 -115.85 -5.9 -116.45 -8.3 -116.05 -11.85 -115.7 -15 -114.3 -17.8 -112.95 -20.55 -110.45 -22.65 -108 -24.7 -104.6 -25.8 -101.15 -27 -96.85 -27 -95.15 -27 -92.95 -26.55 -90.7 -26.05 -88.5 -25.15ZM-69.1 -18.85Q-69.1 -22.3 -66.75 -24.7 -64.4 -27 -60.95 -27L-34.4 -27Q-31 -27 -28.6 -24.7 -26.25 -22.3 -26.25 -18.85 -26.25 -17.15 -26.9 -15.65 -27.5 -14.15 -28.6 -13.05 -29.7 -12 -31.2 -11.35 -32.75 -10.7 -34.4 -10.7L-39.5 -10.7 -39.7 19.5Q-39.7 22.95 -41.95 25.3 -44.3 27.65 -47.65 27.65 -51.1 27.65 -53.4 25.3 -55.65 22.95 -55.65 19.5L-55.8 -10.7 -60.95 -10.7Q-64.4 -10.7 -66.75 -13.05 -69.1 -15.5 -69.1 -18.85ZM-4.15 9.45L-6.5 -1.9 -9.5 9.45 -4.15 9.45Z"/>
                            <path fill="#F06" stroke="none" d="M-66.75 -24.7Q-69.1 -22.3 -69.1 -18.85 -69.1 -15.5 -66.75 -13.05 -64.4 -10.7 -60.95 -10.7L-55.8 -10.7 -55.65 19.5Q-55.65 22.95 -53.4 25.3 -51.1 27.65 -47.65 27.65 -44.3 27.65 -41.95 25.3 -39.7 22.95 -39.7 19.5L-39.5 -10.7 -34.4 -10.7Q-32.75 -10.7 -31.2 -11.35 -29.7 -12 -28.6 -13.05 -27.5 -14.15 -26.9 -15.65 -26.25 -17.15 -26.25 -18.85 -26.25 -22.3 -28.6 -24.7 -31 -27 -34.4 -27L-60.95 -27Q-64.4 -27 -66.75 -24.7M-88.5 -25.15Q-90.7 -26.05 -92.95 -26.55 -95.15 -27 -96.85 -27 -101.15 -27 -104.6 -25.8 -108 -24.7 -110.45 -22.65 -112.95 -20.55 -114.3 -17.8 -115.7 -15 -116.05 -11.85 -116.45 -8.3 -115.85 -5.9 -115.3 -3.6 -114.3 -2.05 -113.3 -.55 -112.05 .3 -110.75 1.1 -109.85 1.55 -105.3 3.7 -101.9 5.5 -98.5 7.25 -96.85 8.3 -95.25 9.25 -95.35 10.65 -95.45 12 -96.85 12.3 -97.5 12.5 -99 12.25 -100.45 12 -101.65 10.5 -103.2 8.6 -105.1 7.8 -106.95 7.1 -108.75 7.2 -110.5 7.25 -112.05 7.95 -113.55 8.65 -114.3 9.6 -115.8 11.35 -116.05 13.3 -116.3 15.25 -115.65 17.2 -114.95 19.15 -113.5 20.9 -112.1 22.7 -110.25 24.1 -108.35 25.55 -105.2 26.65 -102.1 27.75 -96.65 27.65 -94.3 27.65 -91.4 26.9 -88.5 26.1 -85.8 24.45 -83.1 22.85 -81 20.3 -78.85 17.75 -78.15 14.2 -77.65 12.2 -77.9 10 -78.15 7.8 -79.4 5.55 -80.7 3.35 -83.1 1.15 -85.5 -1 -89.35 -2.8L-99 -8.3Q-99.75 -8.7 -100.2 -9.35 -100.65 -9.95 -100.55 -10.5 -100.45 -11.1 -99.75 -11.45 -99.05 -11.85 -97.75 -11.85 -96.75 -11.85 -96.1 -11.4 -95.5 -11 -95.15 -10.35 -94.75 -9.75 -94.35 -9.1 -94.05 -8.45 -93.5 -8.05 -92.2 -6.95 -90.6 -6.45 -89 -5.95 -87.35 -6 -85.7 -6.05 -84.15 -6.6 -82.6 -7.15 -81.35 -8.35 -80.25 -9.5 -79.65 -11 -79.1 -12.45 -79.05 -14.05 -78.95 -15.65 -79.4 -17.2 -79.9 -18.7 -80.95 -19.9 -82.25 -21.55 -84.3 -22.9 -86.3 -24.25 -88.5 -25.15M.1 20.1L1.15 22.35Q1.75 23.9 2.9 25.1 4.05 26.25 5.45 26.95 6.9 27.55 8.5 27.6 10.1 27.65 11.65 27.05 15 25.85 16.3 22.85 17.65 19.85 16.4 16.55L1 -21.05Q-.25 -23.6 -2.15 -25.3 -4.05 -27 -6.8 -27L-7.8 -27Q-10.65 -27 -12.05 -26.15 -13.5 -25.25 -14.1 -24 -14.75 -22.75 -14.9 -21.35 -15.05 -20 -15.5 -19.05L-30.05 16.55Q-31.3 19.85 -29.95 22.85 -28.6 25.85 -25.3 27.05 -23.75 27.65 -22.15 27.6 -20.55 27.55 -19.1 26.95 -17.65 26.25 -16.55 25.1 -15.4 23.9 -14.8 22.35L-13.75 20.1 .1 20.1M-2.3 9.45L-10.7 9.45 -6.65 -5.75 -2.3 9.45M75.75 -24.7Q73.4 -22.3 73.4 -18.85 73.4 -15.5 75.75 -13.05 78.1 -10.7 81.55 -10.7L86.7 -10.7 86.85 19.5Q86.85 22.95 89.1 25.3 91.4 27.65 94.85 27.65 98.2 27.65 100.55 25.3 102.8 22.95 102.8 19.5L103 -10.7 108.1 -10.7Q109.75 -10.7 111.3 -11.35 112.8 -12 113.9 -13.05 115 -14.15 115.6 -15.65 116.25 -17.15 116.25 -18.85 116.25 -22.3 113.9 -24.7 111.5 -27 108.1 -27L81.55 -27Q78.1 -27 75.75 -24.7M27.1 -24.8Q26.95 -23.6 27.3 -22 27.65 -20.45 27.75 -18.85L27.75 19.45Q27.75 22.95 30.05 25.3 32.45 27.65 35.9 27.65 39.25 27.65 41.65 25.3 44.05 22.95 44.05 19.45L44.05 16.4 53.5 25.25Q56 27.75 59.3 27.65 62.6 27.55 65 25.25 66.1 24 66.8 22.35 67.45 20.7 67.45 19.1 67.45 17.5 66.85 16 66.25 14.55 64.85 13.6L60.85 11.35Q62.85 10.2 64.65 8.35 66.4 6.55 67.75 4.3 69.1 2.05 69.9 -.5 70.65 -3 70.65 -5.6 70.65 -10.1 68.9 -14.15 67.2 -18.2 64.2 -21.15 61.2 -24.15 57.2 -25.9 53.15 -27.65 48.6 -27.65L32.15 -27.65Q29.3 -27.65 28.25 -26.9 27.25 -26.1 27.1 -24.8M54.5 -5.45Q54.5 -3.05 52.75 -1.55 50.95 0 48.6 .1L44.05 .3 44.05 -11.4 48.6 -11.25Q50.95 -11.15 52.75 -9.45 54.5 -7.75 54.5 -5.45Z"/>
                            <path fill="#FFF" fill-opacity=".8" stroke="none" d="M-103.55 -15.45Q-102.1 -15.45 -101.1 -16.5 -100.05 -17.5 -100.05 -18.95 -100.05 -20.4 -101.1 -21.45 -102.1 -22.45 -103.55 -22.45 -105 -22.45 -106.05 -21.45 -107.05 -20.4 -107.05 -18.95 -107.05 -17.5 -106.05 -16.5 -105 -15.45 -103.55 -15.45Z"/>
                            <path fill="#FFF" fill-opacity=".8" stroke="none" d="M-58.15 -15.15Q-56.7 -15.15 -55.7 -16.2 -54.65 -17.2 -54.65 -18.65 -54.65 -20.1 -55.7 -21.15 -56.7 -22.15 -58.15 -22.15 -59.6 -22.15 -60.65 -21.15 -61.65 -20.1 -61.65 -18.65 -61.65 -17.2 -60.65 -16.2 -59.6 -15.15 -58.15 -15.15Z"/>
                            <path fill="#FFF" fill-opacity=".8" stroke="none" d="M-7.2 -15.15Q-5.75 -15.15 -4.75 -16.2 -3.7 -17.2 -3.7 -18.65 -3.7 -20.1 -4.75 -21.15 -5.75 -22.15 -7.2 -22.15 -8.65 -22.15 -9.7 -21.15 -10.7 -20.1 -10.7 -18.65 -10.7 -17.2 -9.7 -16.2 -8.65 -15.15 -7.2 -15.15Z"/>
                            <path fill="#FFF" fill-opacity=".8" stroke="none" d="M37.65 -17.25Q39.1 -17.25 40.1 -18.3 41.15 -19.3 41.15 -20.75 41.15 -22.2 40.1 -23.25 39.1 -24.25 37.65 -24.25 36.2 -24.25 35.15 -23.25 34.15 -22.2 34.15 -20.75 34.15 -19.3 35.15 -18.3 36.2 -17.25 37.65 -17.25Z"/>
                            <path fill="#FFF" fill-opacity=".8" stroke="none" d="M84.9 -17.25Q86.35 -17.25 87.35 -18.3 88.4 -19.3 88.4 -20.75 88.4 -22.2 87.35 -23.25 86.35 -24.25 84.9 -24.25 83.45 -24.25 82.4 -23.25 81.4 -22.2 81.4 -20.75 81.4 -19.3 82.4 -18.3 83.45 -17.25 84.9 -17.25Z"/>
                        </g>
                    </g>
                    <g display="none">
                        <g id=".__E9.__96.__83t7o17d20" transform="translate(123.7 3.15)" display="none">
                            <path fill="#FFF" fill-opacity=".443" stroke="none" d="M-33.6 31.95L-32.7 41.4 -42.15 38.4 -35 45.5 -43.6 49.3 -33.6 48.15 -40.7 63.95 -30.5 49.85 -26.7 59.05 -27.6 49.75 -18.3 52.8 -25.6 45.9 -16.7 41.7 -26.65 43 -19.85 27.2 -29.65 41.2 -33.6 31.95M-36.9 47.55L-32.3 45.35 -36.25 41.5 -31.35 43.2 -31.65 38.4 -29.8 43.1 -24.65 35.7 -28.3 44.25 -22.9 43.5 -27.5 45.55 -23.8 49.1 -28.9 47.55 -28.15 52.6 -30.3 47.85 -35.45 54.95 -31.75 46.8 -36.9 47.55Z"/>
                            <path fill="#FFF" fill-opacity=".960" stroke="none" d="M-32.3 45.35L-36.9 47.55 -31.75 46.8 -35.45 54.95 -30.3 47.85 -28.15 52.6 -28.9 47.55 -23.8 49.1 -27.5 45.55 -22.9 43.5 -28.3 44.25 -24.65 35.7 -29.8 43.1 -31.65 38.4 -31.35 43.2 -36.25 41.5 -32.3 45.35M-31.6 46.5L-31.5 46 -31.45 46.15 -31.6 46.5Z"/>
                            <path fill="#FFF" fill-opacity=".4" stroke="none" d="M-31.5 46L-31.6 46.5 -31.45 46.15 -31.5 46Z"/>
                            <path fill="#FFF" fill-opacity=".443" stroke="none" d="M71.5 92.05L67.6 82.8 68.45 92.3 59 89.25 66.2 96.4 57.55 100.15 67.6 99.05 60.45 114.85 70.65 100.7 74.45 109.95 73.55 100.6 82.85 103.7 75.55 96.75 84.5 92.6 74.5 93.9 81.35 78.1 71.5 92.05M64.9 92.4L69.85 94.05 69.5 89.3 71.35 94 76.55 86.55 72.85 95.15 78.3 94.4 73.65 96.45 77.35 100 72.25 98.4 73 103.5 70.85 98.75 65.7 105.8 69.4 97.65 64.25 98.4 68.9 96.25 64.9 92.4Z"/>
                            <path fill="#FFF" fill-opacity=".960" stroke="none" d="M69.85 94.05L64.9 92.4 68.9 96.25 64.25 98.4 69.4 97.65 65.7 105.8 70.85 98.75 73 103.5 72.25 98.4 77.35 100 73.65 96.45 78.3 94.4 72.85 95.15 76.55 86.55 71.35 94 69.5 89.3 69.85 94.05M69.55 97.4L69.65 96.9 69.7 97.05 69.55 97.4Z"/>
                            <path fill="#FFF" fill-opacity=".4" stroke="none" d="M69.65 96.9L69.55 97.4 69.7 97.05 69.65 96.9Z"/>
                            <path fill="#FFF" fill-opacity=".443" stroke="none" d="M114.35 37.5L115.25 46.95 105.8 43.95 112.95 51.05 104.35 54.85 114.35 53.7 107.25 69.55 117.45 55.4 121.25 64.6 120.35 55.3 129.65 58.4 122.35 51.45 131.25 47.25 121.3 48.55 128.1 32.75 118.3 46.75 114.35 37.5M116.3 43.95L118.15 48.65 123.3 41.25 119.65 49.8 125.05 49.05 120.45 51.1 124.15 54.65 119.05 53.1 119.8 58.15 117.65 53.4 112.5 60.5 116.2 52.35 111.05 53.1 115.65 50.9 111.7 47.05 116.6 48.75 116.3 43.95Z"/>
                            <path fill="#FFF" fill-opacity=".960" stroke="none" d="M118.15 48.65L116.3 43.95 116.6 48.75 111.7 47.05 115.65 50.9 111.05 53.1 116.2 52.35 112.5 60.5 117.65 53.4 119.8 58.15 119.05 53.1 124.15 54.65 120.45 51.1 125.05 49.05 119.65 49.8 123.3 41.25 118.15 48.65M116.35 52.05L116.45 51.6 116.5 51.7 116.35 52.05Z"/>
                            <path fill="#FFF" fill-opacity=".4" stroke="none" d="M116.45 51.6L116.35 52.05 116.5 51.7 116.45 51.6Z"/>
                            <animate attributeName="display" repeatCount="indefinite" dur="0.833s" keyTimes="0;.85;1" values="none;inline;inline"/>
                        </g>
                        <animate attributeName="display" repeatCount="indefinite" dur="0.833s" keyTimes="0;.85;1" values="none;inline;inline"/>
                    </g>
                    <g display="none">
                        <g id=".__E9.__96.__83t3o13d20" transform="translate(123.7 3.15)" display="none">
                            <path fill="#FFF" fill-opacity=".443" stroke="none" d="M136.95 89.1L127.5 86.1 134.65 93.2 126.05 97 136.05 95.85 128.95 111.65 139.15 97.55 142.95 106.75 142.05 97.45 151.35 100.5 144.05 93.6 152.95 89.4 143 90.7 149.8 74.9 140 88.9 136.05 79.65 136.95 89.1M133.4 89.2L138.3 90.9 138 86.1 139.85 90.8 145 83.4 141.35 91.95 146.75 91.2 142.15 93.25 145.85 96.8 140.75 95.25 141.5 100.3 139.35 95.55 134.2 102.65 137.9 94.5 132.75 95.25 137.35 93.05 133.4 89.2Z"/>
                            <path fill="#FFF" fill-opacity=".960" stroke="none" d="M138.3 90.9L133.4 89.2 137.35 93.05 132.75 95.25 137.9 94.5 134.2 102.65 139.35 95.55 141.5 100.3 140.75 95.25 145.85 96.8 142.15 93.25 146.75 91.2 141.35 91.95 145 83.4 139.85 90.8 138 86.1 138.3 90.9M138.2 93.85L138.05 94.2 138.15 93.7 138.2 93.85Z"/>
                            <path fill="#FFF" fill-opacity=".4" stroke="none" d="M138.05 94.2L138.2 93.85 138.15 93.7 138.05 94.2Z"/>
                            <path fill="#FFF" fill-opacity=".443" stroke="none" d="M39.7 29.8L29.85 43.75 25.95 34.5 26.8 44 17.35 40.95 24.55 48.1 15.9 51.85 25.95 50.75 18.8 66.55 29 52.4 32.8 61.65 31.9 52.3 41.2 55.4 33.9 48.45 42.85 44.3 32.85 45.6 39.7 29.8M28.2 45.75L27.85 41 29.7 45.7 34.9 38.25 31.2 46.85 36.65 46.1 32 48.15 35.7 51.7 30.6 50.1 31.35 55.2 29.2 50.45 24.05 57.5 27.75 49.35 22.6 50.1 27.25 47.95 23.25 44.1 28.2 45.75Z"/>
                            <path fill="#FFF" fill-opacity=".960" stroke="none" d="M27.85 41L28.2 45.75 23.25 44.1 27.25 47.95 22.6 50.1 27.75 49.35 24.05 57.5 29.2 50.45 31.35 55.2 30.6 50.1 35.7 51.7 32 48.15 36.65 46.1 31.2 46.85 34.9 38.25 29.7 45.7 27.85 41M28 48.6L28.05 48.75 27.9 49.1 28 48.6Z"/>
                            <path fill="#FFF" fill-opacity=".4" stroke="none" d="M28.05 48.75L28 48.6 27.9 49.1 28.05 48.75Z"/>
                            <path fill="#FFF" fill-opacity=".443" stroke="none" d="M-23.9 74.3L-23 83.75 -32.45 80.75 -25.3 87.85 -33.9 91.65 -23.9 90.5 -31 106.35 -20.8 92.2 -17 101.4 -17.9 92.1 -8.6 95.2 -15.9 88.25 -7 84.05 -16.95 85.35 -10.15 69.55 -19.95 83.55 -23.9 74.3M-26.55 83.85L-21.65 85.55 -21.95 80.75 -20.1 85.45 -14.95 78.05 -18.6 86.6 -13.2 85.85 -17.8 87.9 -14.1 91.45 -19.2 89.9 -18.45 94.95 -20.6 90.2 -25.75 97.3 -22.05 89.15 -27.2 89.9 -22.6 87.7 -26.55 83.85Z"/>
                            <path fill="#FFF" fill-opacity=".960" stroke="none" d="M-21.65 85.55L-26.55 83.85 -22.6 87.7 -27.2 89.9 -22.05 89.15 -25.75 97.3 -20.6 90.2 -18.45 94.95 -19.2 89.9 -14.1 91.45 -17.8 87.9 -13.2 85.85 -18.6 86.6 -14.95 78.05 -20.1 85.45 -21.95 80.75 -21.65 85.55M-21.9 88.85L-21.8 88.4 -21.75 88.5 -21.9 88.85Z"/>
                            <path fill="#FFF" fill-opacity=".4" stroke="none" d="M-21.8 88.4L-21.9 88.85 -21.75 88.5 -21.8 88.4Z"/>
                            <animate attributeName="display" repeatCount="indefinite" dur="0.833s" keyTimes="0;.65;1" values="none;inline;inline"/>
                        </g>
                        <animate attributeName="display" repeatCount="indefinite" dur="0.833s" keyTimes="0;.65;.85;1" values="none;inline;none;none"/>
                    </g>
                    <g display="none">
                        <g transform="translate(123.7 3.15)" id=".__E9.__96.__83f0">
                            <path fill="#FFF" fill-opacity=".443" stroke="none" d="M-33.6 31.95L-32.7 41.4 -42.15 38.4 -35 45.5 -43.6 49.3 -33.6 48.15 -40.7 63.95 -30.5 49.85 -26.7 59.05 -27.6 49.75 -18.3 52.8 -25.6 45.9 -16.7 41.7 -26.65 43 -19.85 27.2 -29.65 41.2 -33.6 31.95M-36.9 47.55L-32.3 45.35 -36.25 41.5 -31.35 43.2 -31.65 38.4 -29.8 43.1 -24.65 35.7 -28.3 44.25 -22.9 43.5 -27.5 45.55 -23.8 49.1 -28.9 47.55 -28.15 52.6 -30.3 47.85 -35.45 54.95 -31.75 46.8 -36.9 47.55Z"/>
                            <path fill="#FFF" fill-opacity=".960" stroke="none" d="M-32.3 45.35L-36.9 47.55 -31.75 46.8 -35.45 54.95 -30.3 47.85 -28.15 52.6 -28.9 47.55 -23.8 49.1 -27.5 45.55 -22.9 43.5 -28.3 44.25 -24.65 35.7 -29.8 43.1 -31.65 38.4 -31.35 43.2 -36.25 41.5 -32.3 45.35M-31.45 46.15L-31.6 46.5 -31.5 46 -31.45 46.15Z"/>
                            <path fill="#FFF" fill-opacity=".4" stroke="none" d="M-31.6 46.5L-31.45 46.15 -31.5 46 -31.6 46.5Z"/>
                            <path fill="#FFF" fill-opacity=".443" stroke="none" d="M71.5 92.05L67.6 82.8 68.45 92.3 59 89.25 66.2 96.4 57.55 100.15 67.6 99.05 60.45 114.85 70.65 100.7 74.45 109.95 73.55 100.6 82.85 103.7 75.55 96.75 84.5 92.6 74.5 93.9 81.35 78.1 71.5 92.05M64.9 92.4L69.85 94.05 69.5 89.3 71.35 94 76.55 86.55 72.85 95.15 78.3 94.4 73.65 96.45 77.35 100 72.25 98.4 73 103.5 70.85 98.75 65.7 105.8 69.4 97.65 64.25 98.4 68.9 96.25 64.9 92.4Z"/>
                            <path fill="#FFF" fill-opacity=".960" stroke="none" d="M69.85 94.05L64.9 92.4 68.9 96.25 64.25 98.4 69.4 97.65 65.7 105.8 70.85 98.75 73 103.5 72.25 98.4 77.35 100 73.65 96.45 78.3 94.4 72.85 95.15 76.55 86.55 71.35 94 69.5 89.3 69.85 94.05M69.7 97.05L69.55 97.4 69.65 96.9 69.7 97.05Z"/>
                            <path fill="#FFF" fill-opacity=".4" stroke="none" d="M69.55 97.4L69.7 97.05 69.65 96.9 69.55 97.4Z"/>
                            <path fill="#FFF" fill-opacity=".443" stroke="none" d="M114.35 37.5L115.25 46.95 105.8 43.95 112.95 51.05 104.35 54.85 114.35 53.7 107.25 69.55 117.45 55.4 121.25 64.6 120.35 55.3 129.65 58.4 122.35 51.45 131.25 47.25 121.3 48.55 128.1 32.75 118.3 46.75 114.35 37.5M116.3 43.95L118.15 48.65 123.3 41.25 119.65 49.8 125.05 49.05 120.45 51.1 124.15 54.65 119.05 53.1 119.8 58.15 117.65 53.4 112.5 60.5 116.2 52.35 111.05 53.1 115.65 50.9 111.7 47.05 116.6 48.75 116.3 43.95Z"/>
                            <path fill="#FFF" fill-opacity=".960" stroke="none" d="M118.15 48.65L116.3 43.95 116.6 48.75 111.7 47.05 115.65 50.9 111.05 53.1 116.2 52.35 112.5 60.5 117.65 53.4 119.8 58.15 119.05 53.1 124.15 54.65 120.45 51.1 125.05 49.05 119.65 49.8 123.3 41.25 118.15 48.65M116.35 52.05L116.45 51.6 116.5 51.7 116.35 52.05Z"/>
                            <path fill="#FFF" fill-opacity=".4" stroke="none" d="M116.45 51.6L116.35 52.05 116.5 51.7 116.45 51.6Z"/>
                        </g>
                        <animate attributeName="display" repeatCount="indefinite" dur="0.833s" keyTimes="0;.5;.65;1" values="none;inline;none;none"/>
                    </g>
                    <g display="none">
                        <g id=".__E9.__96.__83t7o7d20" transform="translate(123.7 3.15)" display="none">
                            <path fill="#FFF" fill-opacity=".443" stroke="none" d="M-33.6 31.95L-32.7 41.4 -42.15 38.4 -35 45.5 -43.6 49.3 -33.6 48.15 -40.7 63.95 -30.5 49.85 -26.7 59.05 -27.6 49.75 -18.3 52.8 -25.6 45.9 -16.7 41.7 -26.65 43 -19.85 27.2 -29.65 41.2 -33.6 31.95M-36.9 47.55L-32.3 45.35 -36.25 41.5 -31.35 43.2 -31.65 38.4 -29.8 43.1 -24.65 35.7 -28.3 44.25 -22.9 43.5 -27.5 45.55 -23.8 49.1 -28.9 47.55 -28.15 52.6 -30.3 47.85 -35.45 54.95 -31.75 46.8 -36.9 47.55Z"/>
                            <path fill="#FFF" fill-opacity=".960" stroke="none" d="M-32.3 45.35L-36.9 47.55 -31.75 46.8 -35.45 54.95 -30.3 47.85 -28.15 52.6 -28.9 47.55 -23.8 49.1 -27.5 45.55 -22.9 43.5 -28.3 44.25 -24.65 35.7 -29.8 43.1 -31.65 38.4 -31.35 43.2 -36.25 41.5 -32.3 45.35M-31.6 46.5L-31.5 46 -31.45 46.15 -31.6 46.5Z"/>
                            <path fill="#FFF" fill-opacity=".4" stroke="none" d="M-31.5 46L-31.6 46.5 -31.45 46.15 -31.5 46Z"/>
                            <path fill="#FFF" fill-opacity=".443" stroke="none" d="M71.5 92.05L67.6 82.8 68.45 92.3 59 89.25 66.2 96.4 57.55 100.15 67.6 99.05 60.45 114.85 70.65 100.7 74.45 109.95 73.55 100.6 82.85 103.7 75.55 96.75 84.5 92.6 74.5 93.9 81.35 78.1 71.5 92.05M64.9 92.4L69.85 94.05 69.5 89.3 71.35 94 76.55 86.55 72.85 95.15 78.3 94.4 73.65 96.45 77.35 100 72.25 98.4 73 103.5 70.85 98.75 65.7 105.8 69.4 97.65 64.25 98.4 68.9 96.25 64.9 92.4Z"/>
                            <path fill="#FFF" fill-opacity=".960" stroke="none" d="M69.85 94.05L64.9 92.4 68.9 96.25 64.25 98.4 69.4 97.65 65.7 105.8 70.85 98.75 73 103.5 72.25 98.4 77.35 100 73.65 96.45 78.3 94.4 72.85 95.15 76.55 86.55 71.35 94 69.5 89.3 69.85 94.05M69.55 97.4L69.65 96.9 69.7 97.05 69.55 97.4Z"/>
                            <path fill="#FFF" fill-opacity=".4" stroke="none" d="M69.65 96.9L69.55 97.4 69.7 97.05 69.65 96.9Z"/>
                            <path fill="#FFF" fill-opacity=".443" stroke="none" d="M114.35 37.5L115.25 46.95 105.8 43.95 112.95 51.05 104.35 54.85 114.35 53.7 107.25 69.55 117.45 55.4 121.25 64.6 120.35 55.3 129.65 58.4 122.35 51.45 131.25 47.25 121.3 48.55 128.1 32.75 118.3 46.75 114.35 37.5M116.3 43.95L118.15 48.65 123.3 41.25 119.65 49.8 125.05 49.05 120.45 51.1 124.15 54.65 119.05 53.1 119.8 58.15 117.65 53.4 112.5 60.5 116.2 52.35 111.05 53.1 115.65 50.9 111.7 47.05 116.6 48.75 116.3 43.95Z"/>
                            <path fill="#FFF" fill-opacity=".960" stroke="none" d="M118.15 48.65L116.3 43.95 116.6 48.75 111.7 47.05 115.65 50.9 111.05 53.1 116.2 52.35 112.5 60.5 117.65 53.4 119.8 58.15 119.05 53.1 124.15 54.65 120.45 51.1 125.05 49.05 119.65 49.8 123.3 41.25 118.15 48.65M116.35 52.05L116.45 51.6 116.5 51.7 116.35 52.05Z"/>
                            <path fill="#FFF" fill-opacity=".4" stroke="none" d="M116.45 51.6L116.35 52.05 116.5 51.7 116.45 51.6Z"/>
                            <animate attributeName="display" repeatCount="indefinite" dur="0.833s" keyTimes="0;.35;1" values="none;inline;inline"/>
                        </g>
                        <animate attributeName="display" repeatCount="indefinite" dur="0.833s" keyTimes="0;.35;.5;1" values="none;inline;none;none"/>
                    </g>
                    <g display="none">
                        <g id=".__E9.__96.__83t3o3d20" transform="translate(123.7 3.15)" display="none">
                            <path fill="#FFF" fill-opacity=".443" stroke="none" d="M136.95 89.1L127.5 86.1 134.65 93.2 126.05 97 136.05 95.85 128.95 111.65 139.15 97.55 142.95 106.75 142.05 97.45 151.35 100.5 144.05 93.6 152.95 89.4 143 90.7 149.8 74.9 140 88.9 136.05 79.65 136.95 89.1M133.4 89.2L138.3 90.9 138 86.1 139.85 90.8 145 83.4 141.35 91.95 146.75 91.2 142.15 93.25 145.85 96.8 140.75 95.25 141.5 100.3 139.35 95.55 134.2 102.65 137.9 94.5 132.75 95.25 137.35 93.05 133.4 89.2Z"/>
                            <path fill="#FFF" fill-opacity=".960" stroke="none" d="M138.3 90.9L133.4 89.2 137.35 93.05 132.75 95.25 137.9 94.5 134.2 102.65 139.35 95.55 141.5 100.3 140.75 95.25 145.85 96.8 142.15 93.25 146.75 91.2 141.35 91.95 145 83.4 139.85 90.8 138 86.1 138.3 90.9M138.2 93.85L138.05 94.2 138.15 93.7 138.2 93.85Z"/>
                            <path fill="#FFF" fill-opacity=".4" stroke="none" d="M138.05 94.2L138.2 93.85 138.15 93.7 138.05 94.2Z"/>
                            <path fill="#FFF" fill-opacity=".443" stroke="none" d="M39.7 29.8L29.85 43.75 25.95 34.5 26.8 44 17.35 40.95 24.55 48.1 15.9 51.85 25.95 50.75 18.8 66.55 29 52.4 32.8 61.65 31.9 52.3 41.2 55.4 33.9 48.45 42.85 44.3 32.85 45.6 39.7 29.8M28.2 45.75L27.85 41 29.7 45.7 34.9 38.25 31.2 46.85 36.65 46.1 32 48.15 35.7 51.7 30.6 50.1 31.35 55.2 29.2 50.45 24.05 57.5 27.75 49.35 22.6 50.1 27.25 47.95 23.25 44.1 28.2 45.75Z"/>
                            <path fill="#FFF" fill-opacity=".960" stroke="none" d="M27.85 41L28.2 45.75 23.25 44.1 27.25 47.95 22.6 50.1 27.75 49.35 24.05 57.5 29.2 50.45 31.35 55.2 30.6 50.1 35.7 51.7 32 48.15 36.65 46.1 31.2 46.85 34.9 38.25 29.7 45.7 27.85 41M28 48.6L28.05 48.75 27.9 49.1 28 48.6Z"/>
                            <path fill="#FFF" fill-opacity=".4" stroke="none" d="M28.05 48.75L28 48.6 27.9 49.1 28.05 48.75Z"/>
                            <path fill="#FFF" fill-opacity=".443" stroke="none" d="M-23.9 74.3L-23 83.75 -32.45 80.75 -25.3 87.85 -33.9 91.65 -23.9 90.5 -31 106.35 -20.8 92.2 -17 101.4 -17.9 92.1 -8.6 95.2 -15.9 88.25 -7 84.05 -16.95 85.35 -10.15 69.55 -19.95 83.55 -23.9 74.3M-26.55 83.85L-21.65 85.55 -21.95 80.75 -20.1 85.45 -14.95 78.05 -18.6 86.6 -13.2 85.85 -17.8 87.9 -14.1 91.45 -19.2 89.9 -18.45 94.95 -20.6 90.2 -25.75 97.3 -22.05 89.15 -27.2 89.9 -22.6 87.7 -26.55 83.85Z"/>
                            <path fill="#FFF" fill-opacity=".960" stroke="none" d="M-21.65 85.55L-26.55 83.85 -22.6 87.7 -27.2 89.9 -22.05 89.15 -25.75 97.3 -20.6 90.2 -18.45 94.95 -19.2 89.9 -14.1 91.45 -17.8 87.9 -13.2 85.85 -18.6 86.6 -14.95 78.05 -20.1 85.45 -21.95 80.75 -21.65 85.55M-21.9 88.85L-21.8 88.4 -21.75 88.5 -21.9 88.85Z"/>
                            <path fill="#FFF" fill-opacity=".4" stroke="none" d="M-21.8 88.4L-21.9 88.85 -21.75 88.5 -21.8 88.4Z"/>
                            <animate attributeName="display" repeatCount="indefinite" dur="0.833s" keyTimes="0;.15;1" values="none;inline;inline"/>
                        </g>
                        <animate attributeName="display" repeatCount="indefinite" dur="0.833s" keyTimes="0;.15;.35;1" values="none;inline;none;none"/>
                    </g>
                    <g>
                        <g transform="translate(123.7 3.15)" id=".__E9.__96.__83f0">
                            <path fill="#FFF" fill-opacity=".443" stroke="none" d="M-33.6 31.95L-32.7 41.4 -42.15 38.4 -35 45.5 -43.6 49.3 -33.6 48.15 -40.7 63.95 -30.5 49.85 -26.7 59.05 -27.6 49.75 -18.3 52.8 -25.6 45.9 -16.7 41.7 -26.65 43 -19.85 27.2 -29.65 41.2 -33.6 31.95M-36.9 47.55L-32.3 45.35 -36.25 41.5 -31.35 43.2 -31.65 38.4 -29.8 43.1 -24.65 35.7 -28.3 44.25 -22.9 43.5 -27.5 45.55 -23.8 49.1 -28.9 47.55 -28.15 52.6 -30.3 47.85 -35.45 54.95 -31.75 46.8 -36.9 47.55Z"/>
                            <path fill="#FFF" fill-opacity=".960" stroke="none" d="M-32.3 45.35L-36.9 47.55 -31.75 46.8 -35.45 54.95 -30.3 47.85 -28.15 52.6 -28.9 47.55 -23.8 49.1 -27.5 45.55 -22.9 43.5 -28.3 44.25 -24.65 35.7 -29.8 43.1 -31.65 38.4 -31.35 43.2 -36.25 41.5 -32.3 45.35M-31.45 46.15L-31.6 46.5 -31.5 46 -31.45 46.15Z"/>
                            <path fill="#FFF" fill-opacity=".4" stroke="none" d="M-31.6 46.5L-31.45 46.15 -31.5 46 -31.6 46.5Z"/>
                            <path fill="#FFF" fill-opacity=".443" stroke="none" d="M71.5 92.05L67.6 82.8 68.45 92.3 59 89.25 66.2 96.4 57.55 100.15 67.6 99.05 60.45 114.85 70.65 100.7 74.45 109.95 73.55 100.6 82.85 103.7 75.55 96.75 84.5 92.6 74.5 93.9 81.35 78.1 71.5 92.05M64.9 92.4L69.85 94.05 69.5 89.3 71.35 94 76.55 86.55 72.85 95.15 78.3 94.4 73.65 96.45 77.35 100 72.25 98.4 73 103.5 70.85 98.75 65.7 105.8 69.4 97.65 64.25 98.4 68.9 96.25 64.9 92.4Z"/>
                            <path fill="#FFF" fill-opacity=".960" stroke="none" d="M69.85 94.05L64.9 92.4 68.9 96.25 64.25 98.4 69.4 97.65 65.7 105.8 70.85 98.75 73 103.5 72.25 98.4 77.35 100 73.65 96.45 78.3 94.4 72.85 95.15 76.55 86.55 71.35 94 69.5 89.3 69.85 94.05M69.7 97.05L69.55 97.4 69.65 96.9 69.7 97.05Z"/>
                            <path fill="#FFF" fill-opacity=".4" stroke="none" d="M69.55 97.4L69.7 97.05 69.65 96.9 69.55 97.4Z"/>
                            <path fill="#FFF" fill-opacity=".443" stroke="none" d="M114.35 37.5L115.25 46.95 105.8 43.95 112.95 51.05 104.35 54.85 114.35 53.7 107.25 69.55 117.45 55.4 121.25 64.6 120.35 55.3 129.65 58.4 122.35 51.45 131.25 47.25 121.3 48.55 128.1 32.75 118.3 46.75 114.35 37.5M116.3 43.95L118.15 48.65 123.3 41.25 119.65 49.8 125.05 49.05 120.45 51.1 124.15 54.65 119.05 53.1 119.8 58.15 117.65 53.4 112.5 60.5 116.2 52.35 111.05 53.1 115.65 50.9 111.7 47.05 116.6 48.75 116.3 43.95Z"/>
                            <path fill="#FFF" fill-opacity=".960" stroke="none" d="M118.15 48.65L116.3 43.95 116.6 48.75 111.7 47.05 115.65 50.9 111.05 53.1 116.2 52.35 112.5 60.5 117.65 53.4 119.8 58.15 119.05 53.1 124.15 54.65 120.45 51.1 125.05 49.05 119.65 49.8 123.3 41.25 118.15 48.65M116.35 52.05L116.45 51.6 116.5 51.7 116.35 52.05Z"/>
                            <path fill="#FFF" fill-opacity=".4" stroke="none" d="M116.45 51.6L116.35 52.05 116.5 51.7 116.45 51.6Z"/>
                        </g>
                        <animate attributeName="display" repeatCount="indefinite" dur="0.833s" keyTimes="0;.15;1" values="inline;none;none"/>
                    </g>
                </g>
            </g>        
        </g>
        <g id="QuesBtn" transform="translate(790, 470)">
            <g id="ReBtn" transform="translate(0,0)" class="ee-obj bsrefresh">
                <g id="___1">
                    <g id="Layer_1" transform="matrix( 1, 0, 0, 1, 0.85,0.9) ">
                        <g id="___3" transform="matrix( 1, 0, 0, 1, 61.85,26.85) ">
                            <g>
                                <g>
                                    <g>
                                        <path fill="#00458A" stroke="none" d=" M 52.8 -17.75 Q 45.45 -25.1 35.05 -25.1 L -35.05 -25.1 Q -45.45 -25.1 -52.8 -17.75 -60.15 -10.4 -60.15 0 -60.15 5.5708984375 -58.05 10.25 -56.212890625 14.337109375 -52.8 17.75 -45.45 25.1 -35.05 25.1 L 35.05 25.1 Q 45.45 25.1 52.8 17.75 56.999609375 13.550390625 58.8 8.35 60.15 4.4576171875 60.15 0 60.15 -10.4 52.8 -17.75 Z"/>
                                    </g>
                                </g>

                                <g>
                                    <path stroke="#00458A" stroke-width="3" stroke-linejoin="round" stroke-linecap="round" fill="none" d=" M 35.05 -25.1 L -35.05 -25.1 Q -45.45 -25.1 -52.8 -17.75 -60.15 -10.4 -60.15 0 -60.15 5.5708984375 -58.05 10.275 -56.212890625 14.337109375 -52.8 17.75 -45.45 25.1 -35.05 25.1 L 35.05 25.1 Q 45.45 25.1 52.8 17.75 56.999609375 13.550390625 58.8 8.35 60.15 4.4576171875 60.15 0 60.15 -10.4 52.8 -17.75 45.45 -25.1 35.05 -25.1 Z"/>
                                </g>
                            </g>
                        </g>

                        <g id="___1" transform="matrix( 1, 0, 0, 1, 61.85,26.85) ">
                            <g>
                                <g>
                                    <g>
                                        <path fill="#0056AC" stroke="none" d=" M 52.8 17.75 Q 56.999609375 13.550390625 58.8 8.35 57.1384765625 10.9548828125 54.7 13.25 47.05 20.5 36.2 20.5 L -36.8 20.5 Q -47.65 20.5 -55.3 13.25 -56.821875 11.817578125 -58.05 10.25 -56.212890625 14.337109375 -52.8 17.75 -45.45 25.1 -35.05 25.1 L 35.05 25.1 Q 45.45 25.1 52.8 17.75 Z"/>

                                        <path fill="#007FFF" stroke="none" d=" M 52.8 -17.75 Q 45.45 -25.1 35.05 -25.1 L -35.05 -25.1 Q -45.45 -25.1 -52.8 -17.75 -60.15 -10.4 -60.15 0 -60.15 5.5708984375 -58.05 10.25 -56.821875 11.817578125 -55.3 13.25 -47.65 20.5 -36.8 20.5 L 36.2 20.5 Q 47.05 20.5 54.7 13.25 57.1384765625 10.9548828125 58.8 8.35 60.15 4.4576171875 60.15 0 60.15 -10.4 52.8 -17.75 Z"/>
                                    </g>
                                </g>
                            </g>
                        </g>

                        <g id="___2" transform="matrix( 1, 0, 0, 1, 61.85,26.85) ">
                            <g>
                                <g>
                                    <g>
                                        <path fill="#FFFFFF" fill-opacity="0.4" stroke="none" d=" M 53.8 -16.7 Q 53.312109375 -17.237890625 52.8 -17.75 45.45 -25.1 35.05 -25.1 L -35.05 -25.1 Q -45.45 -25.1 -52.8 -17.75 -60.15 -10.4 -60.15 0 -60.15 10.4 -52.8 17.75 -51.9162109375 18.6337890625 -51 19.4 -57.35 12.3755859375 -57.35 2.7 -57.35 -7.7 -50 -15.05 -49.42734375 -15.62265625 -48.85 -16.15 -49.4951171875 -15.5203125 -50.05 -14.85 -52.4 -12 -51.45 -10.05 -50.5 -8.15 -46.75 -8.3 -43.05 -8.45 -38.7 -10.6 -34.4 -12.75 -32 -15.65 -29.65 -18.55 -30.6 -20.45 -31.55 -22.4 -35.3 -22.2 -35.578515625 -22.188671875 -35.85 -22.2 -34.1046875 -22.4 -32.25 -22.4 L 37.85 -22.4 Q 46.999609375 -22.4 53.8 -16.7 M -45 -19 Q -43.732421875 -19.7607421875 -42.4 -20.35 -42.8392578125 -20.1302734375 -43.3 -19.9 -44.190625 -19.459765625 -45 -19 Z"/>
                                    </g>
                                </g>
                            </g>
                        </g>
                    </g>

                    <g id="___2" transform="matrix( 1, 0, 0, 1, 0.85,0.9) ">
                        <g>
                            <g>
                                <g>
                                    <path fill="#FFFFFF" stroke="none" d=" M 55.9 9.85 Q 57.3 9.65 57.3 8.7 57.3 7.3 56.2 7.3 49.8 8.2 42.4 8.6 36.45 8.95 29.45 9 28.25 9 28.25 10.15 28.25 11.45 29.7 11.45 33 11.45 41.3 10.95 L 41.3 13.35 26.7 13.35 Q 25.55 13.35 25.55 14.45 25.55 15.75 26.7 15.75 L 41.3 15.75 41.3 17.95 31 17.95 Q 28.9 17.95 28.9 20 L 28.9 28.8 Q 28.9 30.95 31 30.95 L 41.3 30.95 41.3 33.3 29.2 33.3 Q 28 33.3 28 34.4 28 35.55 29.2 35.55 L 41.3 35.55 41.3 38.2 27.15 38.2 Q 26 38.2 26 39.35 26 40.65 27.15 40.65 L 58.6 40.65 Q 59.8 40.65 59.8 39.35 59.8 38.2 58.6 38.2 L 43.9 38.2 43.9 35.55 56.95 35.55 Q 58.1 35.55 58.1 34.4 58.1 33.3 56.95 33.3 L 43.9 33.3 43.9 30.95 54.9 30.95 Q 57.05 30.95 57.05 28.8 L 57.05 20 Q 57.05 17.95 54.9 17.95 L 43.9 17.95 43.9 15.75 59.55 15.75 Q 60.65 15.75 60.65 14.45 60.65 13.35 59.55 13.35 L 43.9 13.35 43.9 10.8 Q 51.3 10.4 55.9 9.85 M 43.9 23.3 L 43.9 20.4 53.75 20.4 Q 54.45 20.4 54.45 21.15 L 54.45 23.3 43.9 23.3 M 41.3 20.4 L 41.3 23.3 31.45 23.3 31.45 21.15 Q 31.45 20.4 32.2 20.4 L 41.3 20.4 M 54.45 25.5 L 54.45 27.65 Q 54.45 28.5 53.75 28.5 L 43.9 28.5 43.9 25.5 54.45 25.5 M 41.3 25.5 L 41.3 28.5 32.2 28.5 Q 31.45 28.5 31.45 27.65 L 31.45 25.5 41.3 25.5 M 73.25 8.7 Q 73.25 7.55 71.95 7.55 70.8 7.55 70.8 8.7 L 70.8 10.3 64.15 10.3 Q 63.1 10.3 63.1 11.3 63.1 12.3 64.15 12.3 L 70.8 12.3 70.8 14.3 66.45 14.3 Q 64.6 14.3 64.6 16.05 L 64.6 18.95 Q 64.6 20.85 66.45 20.85 L 70.1 20.85 Q 69.45 21.4 68.6 22 66.75 23.25 63.1 24.85 62.55 25.35 62.55 26.05 62.55 27.1 63.7 27.1 64.25 27.1 65.45 26.45 67.3 25.5 68.85 24.4 69.75 23.7 70.8 22.8 L 70.8 26.05 Q 70.8 27.2 71.95 27.2 73.25 27.2 73.25 26.05 L 73.25 22 Q 75.35 23.5 77 25 77.25 25.15 77.7 25.15 78.7 25.15 78.7 24.2 78.7 23.7 78.3 23.3 76.8 22.05 74.9 20.85 L 77.1 20.85 Q 79 20.85 79 18.95 L 79 16.05 Q 79 14.3 77.1 14.3 L 73.25 14.3 73.25 12.3 79.6 12.3 Q 80.6 12.3 80.6 11.3 80.6 10.3 79.6 10.3 L 73.25 10.3 73.25 8.7 M 66.55 18.25 L 66.55 16.8 Q 66.55 16.25 67.2 16.25 L 70.8 16.25 70.8 18.95 67.2 18.95 Q 66.55 18.95 66.55 18.25 M 76.45 16.25 Q 77 16.25 77 16.8 L 77 18.25 Q 77 18.95 76.45 18.95 L 73.25 18.95 73.25 16.25 76.45 16.25 M 91.3 35.4 Q 92.35 35.4 92.35 34.25 92.35 33.3 91.3 33.3 L 81.2 33.3 81.2 30.7 94.2 30.7 Q 95.25 30.7 95.25 29.5 95.25 28.5 94.2 28.5 L 65.6 28.5 Q 64.6 28.5 64.6 29.5 64.6 30.7 65.6 30.7 L 78.55 30.7 78.55 38.5 72.5 38.5 72.5 32.95 Q 72.5 31.7 71.2 31.7 69.9 31.7 69.9 32.95 L 69.9 38.5 64.6 38.5 Q 63.4 38.5 63.4 39.65 63.4 40.75 64.6 40.75 L 95.5 40.75 Q 96.65 40.75 96.65 39.65 96.65 38.5 95.5 38.5 L 81.2 38.5 81.2 35.4 91.3 35.4 M 96.4 12.2 Q 96.4 11 95.25 11 L 85.3 11 Q 85.45 10.05 85.55 8.85 85.55 7.65 84.25 7.65 83.1 7.65 83.1 8.85 82.85 11.6 82.35 13.55 81.7 15.6 80.3 17.5 79.9 17.95 79.9 18.1 79.9 19.25 81.2 19.25 81.7 19.25 82.35 18.65 83.1 17.8 83.65 16.6 83.8 17.2 84.05 17.85 84.75 20 86.25 21.8 L 86.25 21.85 Q 85.9 22.15 85.5 22.4 83.35 23.8 79.75 25 79.15 25.35 79.15 26.05 79.15 27.35 80.6 27.35 80.9 27.35 81.4 27.2 84.65 26.15 87.15 24.5 87.7 24.15 88.2 23.7 88.8 24.1 89.45 24.55 91.5 25.9 94.45 27.05 95.1 27.2 95.35 27.2 96.8 27.2 96.8 25.8 96.8 25.2 96.4 24.85 92.85 23.55 91.45 22.8 90.65 22.4 90 21.9 90.5 21.35 90.95 20.65 92.1 18.7 92.55 16.5 93 14.5 93 13.35 L 95.25 13.35 Q 96.4 13.35 96.4 12.2 M 86 16.7 Q 85.45 15.3 85.2 13.35 L 90.55 13.35 Q 90.15 17 88.8 19.15 88.45 19.65 88.05 20.1 86.7 18.5 86 16.7 Z"/>
                                </g>
                            </g>
                        </g>
                    </g>
                </g>
            </g>
            <g id="QuBtn" transform="translate(0,120)" class="ee-obj bsquit">
                <g id="___1">
                    <g id="Layer_1" transform="matrix( 1, 0, 0, 1, 0.85,0.9) ">
                        <g id="___3" transform="matrix( 1, 0, 0, 1, 61.85,26.85) ">
                            <g>
                                <g>
                                    <g>
                                        <path fill="#030303" stroke="none" d=" M 52.8 -17.75 Q 45.45 -25.1 35.05 -25.1 L -35.05 -25.1 Q -45.45 -25.1 -52.8 -17.75 -60.15 -10.4 -60.15 0 -60.15 5.5708984375 -58.05 10.25 -56.212890625 14.337109375 -52.8 17.75 -45.45 25.1 -35.05 25.1 L 35.05 25.1 Q 45.45 25.1 52.8 17.75 56.999609375 13.550390625 58.8 8.35 60.15 4.4576171875 60.15 0 60.15 -10.4 52.8 -17.75 Z"/>
                                    </g>
                                </g>

                                <g>
                                    <path stroke="#000000" stroke-opacity="0.9882352941176471" stroke-width="3" stroke-linejoin="round" stroke-linecap="round" fill="none" d=" M 35.05 -25.1 L -35.05 -25.1 Q -45.45 -25.1 -52.8 -17.75 -60.15 -10.4 -60.15 0 -60.15 5.5708984375 -58.05 10.275 -56.212890625 14.337109375 -52.8 17.75 -45.45 25.1 -35.05 25.1 L 35.05 25.1 Q 45.45 25.1 52.8 17.75 56.999609375 13.550390625 58.8 8.35 60.15 4.4576171875 60.15 0 60.15 -10.4 52.8 -17.75 45.45 -25.1 35.05 -25.1 Z"/>
                                </g>
                            </g>
                        </g>

                        <g id="___1" transform="matrix( 1, 0, 0, 1, 61.85,26.85) ">
                            <g>
                                <g>
                                    <g>
                                        <path fill="#222222" stroke="none" d=" M 52.8 17.75 Q 56.999609375 13.550390625 58.8 8.35 57.1384765625 10.9548828125 54.7 13.25 47.05 20.5 36.2 20.5 L -36.8 20.5 Q -47.65 20.5 -55.3 13.25 -56.821875 11.817578125 -58.05 10.25 -56.212890625 14.337109375 -52.8 17.75 -45.45 25.1 -35.05 25.1 L 35.05 25.1 Q 45.45 25.1 52.8 17.75 Z"/>

                                        <path fill="#333333" stroke="none" d=" M 52.8 -17.75 Q 45.45 -25.1 35.05 -25.1 L -35.05 -25.1 Q -45.45 -25.1 -52.8 -17.75 -60.15 -10.4 -60.15 0 -60.15 5.5708984375 -58.05 10.25 -56.821875 11.817578125 -55.3 13.25 -47.65 20.5 -36.8 20.5 L 36.2 20.5 Q 47.05 20.5 54.7 13.25 57.1384765625 10.9548828125 58.8 8.35 60.15 4.4576171875 60.15 0 60.15 -10.4 52.8 -17.75 Z"/>
                                    </g>
                                </g>
                            </g>
                        </g>

                        <g id="___2" transform="matrix( 1, 0, 0, 1, 61.85,26.85) ">
                            <g>
                                <g>
                                    <g>
                                        <path fill="#FFFFFF" fill-opacity="0.14901960784313725" stroke="none" d=" M 53.8 -16.7 Q 53.312109375 -17.237890625 52.8 -17.75 45.45 -25.1 35.05 -25.1 L -35.05 -25.1 Q -45.45 -25.1 -52.8 -17.75 -60.15 -10.4 -60.15 0 -60.15 10.4 -52.8 17.75 -51.9162109375 18.6337890625 -51 19.4 -57.35 12.3755859375 -57.35 2.7 -57.35 -7.7 -50 -15.05 -49.42734375 -15.62265625 -48.85 -16.15 -49.4951171875 -15.5203125 -50.05 -14.85 -52.4 -12 -51.45 -10.05 -50.5 -8.15 -46.75 -8.3 -43.05 -8.45 -38.7 -10.6 -34.4 -12.75 -32 -15.65 -29.65 -18.55 -30.6 -20.45 -31.55 -22.4 -35.3 -22.2 -35.578515625 -22.188671875 -35.85 -22.2 -34.1046875 -22.4 -32.25 -22.4 L 37.85 -22.4 Q 46.999609375 -22.4 53.8 -16.7 M -45 -19 Q -43.732421875 -19.7607421875 -42.4 -20.35 -42.8392578125 -20.1302734375 -43.3 -19.9 -44.190625 -19.459765625 -45 -19 Z"/>
                                    </g>
                                </g>
                            </g>
                        </g>
                    </g>

                    <g id="___2" transform="matrix( 1, 0, 0, 1, 0.85,0.9) ">
                        <g>
                            <g>
                                <g>
                                    <path fill="#FFFFFF" stroke="none" d=" M 41.2 15.1 Q 42.25 12.9 40.75 12.45 L 34.8 12.45 34.7 12.2 Q 35.1 7.55 33.6 7.8 L 32.45 7.8 Q 31.85 8.05 31.55 8.75 L 31.55 12.45 25.45 12.45 Q 24.85 12.6 24.55 13.35 L 24.55 14.4 25.2 15.25 28.55 15.4 Q 28.85 28.1 25.6 37.05 24 40.5 24.65 40.75 26.2 42.3 27.45 41 29.35 36 29.7 34.1 31.15 27.55 31.4 22.3 L 35.45 22.3 Q 36.15 22.7 36.25 23.25 L 36.25 25.75 Q 36.7 39.45 33.6 38.85 L 32.75 38.7 Q 30.85 37.85 30.7 38.15 29.95 38.5 29.95 39.15 29.8 40.6 30.25 40.8 32.75 41.9 33.75 41.75 36.85 41.7 37.9 39.3 L 38.7 35.65 39.15 26.5 Q 39.85 19.3 37.1 19.55 L 31.45 19.55 31.45 15.4 37.3 15.4 Q 41.2 15.5 41.2 15.1 M 46.3 12.3 L 46.35 11.95 Q 47.05 7.5 45.65 7.8 L 44.5 7.8 43.7 8.4 Q 43.1 16.1 41.65 19.15 39.2 23.25 39.9 23.55 41.45 25.3 42.7 23.85 L 44.15 21.3 Q 45.05 28.1 47.95 32.8 L 47.9 33.05 Q 45.6 35.85 42.4 37.85 40 39.15 40.2 39.5 L 40.3 40.8 Q 40.9 41.95 42.6 41.6 47.4 38.9 50.1 35.55 L 50.6 36.15 Q 58 42.75 59 41.45 60.15 40.95 59.8 39.3 53.75 35.45 51.85 32.95 L 52.85 30.95 Q 55.85 23.25 55.95 15.3 58.4 15.3 58.85 14.95 59.9 12.75 58.4 12.3 L 46.3 12.3 M 46.1 15.25 L 53.2 15.25 Q 52.55 25.95 49.85 30 L 49.8 30 49.25 29.05 Q 46.1 21.75 46.1 15.25 M 94.45 19.95 Q 96.45 20.05 95.9 18.2 L 94 16.6 87.8 12.6 96.2 12.5 Q 98.05 11.3 96.4 10 L 81.5 10 Q 81.65 7.75 80.35 7.55 L 79.25 7.55 78.35 8.1 78.15 10 64 10 63.3 10.75 63.3 11.8 64 12.5 73.45 12.6 70.05 15.8 67.05 15.95 Q 63.3 15.8 63.6 16.85 L 63.6 17.9 64.3 18.6 90.85 17.55 92.35 18.7 Q 94.15 20.2 94.45 19.95 M 85.05 13.9 L 86.7 15 73.8 15.65 77.05 12.6 84.9 12.6 85.05 13.9 M 89.3 21 L 81.35 21 Q 81.4 18.6 80.35 18.55 L 79.25 18.55 78.5 19.05 78.3 21 70.6 21 Q 70.7 19.05 69.6 18.85 68.3 18.55 67.8 19.35 L 67.55 21 63.9 21 63.15 21.75 63.15 22.85 63.9 23.55 67.65 23.6 67.65 27.2 Q 68.25 29 69.7 29.05 L 79.05 29.15 78.5 29.65 78.3 31.75 64.15 31.75 63.45 32.45 63.45 33.55 64.15 34.25 76.6 34.35 74.95 35.3 Q 70.15 37.3 67.05 37.9 62.55 38.5 62.7 39.35 L 62.75 40.6 Q 63.3 41.4 64.3 41.3 73.2 39.7 78.35 36.3 L 78.35 39.05 Q 78.15 41.95 78.8 41.9 81.05 42.75 81.25 40.75 L 81.25 36.1 Q 90 41.3 96.6 41.3 97.9 39.85 96.9 39 87.35 37 82.95 34.35 L 96.35 34.25 Q 98.2 33.05 96.55 31.75 L 81.35 31.75 Q 81.4 29.55 80.55 29.15 L 83.65 29.15 Q 92.45 29.85 92.15 27.4 L 92.35 23.6 96.35 23.55 Q 98.2 22.3 96.55 21 L 92.35 21 Q 92.45 19.05 91.35 18.85 90.05 18.55 89.55 19.35 L 89.3 21 M 81.25 23.6 L 89.4 23.6 89.4 25.15 Q 89.55 26.2 88.25 26.5 L 81.25 26.5 81.25 23.6 M 70.55 23.6 L 78.35 23.6 78.35 26.5 71.6 26.5 Q 71 26.65 70.55 25.65 L 70.55 23.6 Z"/>
                                </g>
                            </g>
                        </g>
                    </g>
                </g>
            </g>
        </g>
    </g>
    <g id="GameClear" style="display: none;">
        <g id="GameClearBg"><use xlink:href="#UseBg2" transform="translate(-25, -35)"/></g>
        <g id="ReplayBtn" transform="translate(400,350)" class="ee-obj bsreplay">
            <use xlink:href="#UsePic" transform="translate(-550,-400)" clip-path="url(#ReplayClip)"/>
        </g>
    </g>
    <script type="text/javascript"><![CDATA[
        // dragobj:拖曳模組、QuesData:題目、Timer:計時器
        var QuesData;
        var QuesTitle;
        var QuesAudio;
        var Timer;
        // 外層丟 nowLv:目前難度(1易 2中 3難)，nowCat:目前類別(1觀察 2推理 3記憶 4素養) nowSec:遊戲總時數(倒數)
        var nowLv = 0;
        var nowCat = 0;
        var nowSec = 0;

        //測試模式
        var isTestMode = false;
        //是否鎖定點擊
        var isBlock = false;
        // isAns:本題是否答對、isQuit:本題是否放棄、isEnd:是否時間到
        var isAns, isQuit, isEnd;
        // isStartGame:是否開始遊戲、isTimePause:是否暫停計時、isFirstGame:是否第一次進入遊戲(唸旁白)
        var isStartGame = false;
        var isTimePause = false;
        var isFirstGame = true;
        // isSound:是否正在播音效/旁白
        var isSound = false;
        // SoundNum:旁白數量、SoundNow:目前旁白
        var SoundNum = 0;
        var SoundNow = 0;
        // isBGM:是否播放背景音樂
        var isBGM = true;
        // 背景音量
        var BGMvol = 0.5;

        // 依照各題所需客製 b_ary:格子狀態、boxn:箱子數
        var b_ary = [];
        var boxn;
        // QuesNo:題號亂數打亂陣列、NowNo:目前出第幾題(抓QuesNo裡)、NowQues:本題題目
        var QuesNo, NowNo, NowQues;
        var WrongQues;

        function ClickEvent() {
            let objary = document.querySelectorAll(".ee-obj");
            objary.forEach((obj) => {
                obj.onclick = function(e) {            
                    if(obj.classList.contains("bsstart")) {
                        // console.log("開始遊戲 ====");
                        StartGame();                       
                    }
                    if(obj.classList.contains("bsreplay")) {
                        // console.log("再玩一次 ====");
                        window.parent.GameInit();
                    }
                    if(!isStartGame) return;
                    if(nowSec <= 0) return;
                    if(isBlock) return;              
                    if(obj.classList.contains("bsrefresh")) {
                        // console.log("重整 ====");
                        ResetBrick();
                    }                    
                    if(obj.classList.contains("bsquit")) {
                        if(isQuit) return;
                        WrongQues.push(QuesNo[NowNo]);
                        NowNo++;

                        isAns = false;
                        isQuit = true;
                        isEnd = (nowSec > 0 ? false : true);

                        PlayOX(isAns, isQuit, isEnd);
                    }
                }
            });
        }

        var svgNScr = "http://www.w3.org/2000/svg";
        var svgNSat = "http://www.w3.org/1999/xlink";
        var isDragging = false;
        const svg = document.getElementById('svgObj');
        const svgRect = document.getElementById('svgObj').getBoundingClientRect();
        var svgScale;
        var thisbk;
        var group,g_dx,g_dy;
        var svg_x_off, svg_y_off;
        var target = [0, 0, 0];

        function DragEvent() {
            // console.log("DragEvent ====== boxn =", boxn);
            for(var i = 0; i < boxn; i++) {
                var AnsObj = document.getElementById("Ans_" + i);
                AnsObj.addEventListener('mousedown', downActive);
                AnsObj.addEventListener("touchstart", downActive);
            }
        }
        function downActive(event){
            event.preventDefault(); 
            // console.log("downActive == isStartGame =", isStartGame, ", nowSec =", nowSec, ", isBlock =", isBlock);
            if(!isStartGame) return;
            if(nowSec <= 0) return;
            if(isBlock) return;

            var targetobj = event.currentTarget;
            target[0] = parseInt(targetobj.getAttribute("bn"));
            target[1] = parseInt(targetobj.getAttribute("fx"));
            target[2] = parseInt(targetobj.getAttribute("fy"));
            target[3] = (parseInt(targetobj.getAttribute("num")) == 0 ? 2 : parseInt(targetobj.getAttribute("num")));
            target[4] = parseInt(targetobj.getAttribute("dir"));
            // console.log("target =", target);

            if(target[4] == 0) {
                target = [];
                return;
            }
        
            thisbk = parseInt(String(this.id).slice(String("Ans_").length, String(this.id).length));
            this.parentNode.appendChild(this);
            group = this;
            isDragging = true;
            svgScale = [svg.clientWidth / 1024, svg.clientHeight / 768];

            if(event.type == "touchstart"){
                clientX = event.touches[0].clientX;
                clientY = event.touches[0].clientY;
            }else{
                clientX = event.clientX;
                clientY = event.clientY;
            }

            var AnsBoxXY = GetTranslateXY("AnsBox");
            var tempxy = GetTranslateXY("Ans_" + thisbk);
            svg_x_off = tempxy[0];
            svg_y_off = tempxy[1];
            // console.log("clientX =", parseInt(clientX), ", clientY =", parseInt(clientY), ", svgScale =", svgScale);
            // console.log("AnsBoxXY =", AnsBoxXY, ", tempxy =", tempxy);

            //clientX = clientX - PuzzleBoxXY[0] * svgScale[0] - QuesMainXY[0] * svgScale[0] - svgMainXY[0 * svgScale[0]];
            //clientY = clientY - PuzzleBoxXY[1] * svgScale[1] - QuesMainXY[1] * svgScale[1] - svgMainXY[1] * svgScale[1];

            var tempRect = document.createElementNS(svgNScr, 'rect');
            tempRect.setAttribute('id', 'tempRect');
            tempRect.setAttribute('width', '100%');
            tempRect.setAttribute('height', '100%');
            tempRect.setAttribute('fill', '#FFFFFF');
            tempRect.setAttribute('opacity', '0.3');
            this.appendChild(tempRect);

            var groupRect = tempRect.getBoundingClientRect();
            var groupX = groupRect.left - svgRect.left;
            var groupY = groupRect.top - svgRect.top;
            g_dx = (clientX - svgRect.left) - groupX;
            g_dy = (clientY - svgRect.top) - groupY;
            this.removeChild(tempRect);
            // console.log("groupRect =", parseInt(groupRect.left), ", ", parseInt(groupRect.top), ", svgRect =", parseInt(svgRect.left), ", ", parseInt(svgRect.top), ", ", svg.clientWidth, ", ", svg.clientHeight);
            // console.log("groupX =", parseInt(groupX), ", groupY =", parseInt(groupY));
            // console.log("g_dx =", parseInt(g_dx), ", g_dy =", parseInt(g_dy));

            document.addEventListener('mousemove', moveActive);
            document.addEventListener("touchmove", moveActive);
            document.addEventListener('mouseup', enddrag);
            document.addEventListener("touchend", enddrag);
        }
        function GetTranslateXY(id) {
            var obj = document.getElementById(id);
            var transform = obj.getAttribute("transform");
            var translate = String(transform).split("translate(");            
            var val = String(translate[1]).split(",");
            var val2 = String(val[1]).split(")");

            var x = parseInt(val[0]);
            var y = parseInt(val2[0]);
            // console.log("x =", x, ", y =", y);
            return [x, y];
        }
        function moveActive(event){
            event.preventDefault(); 
            if (isDragging) {            
                //*****  處理位移偏差值
                if(event.type == "touchmove"){
                    clientX = event.touches[0].clientX;
                    clientY = event.touches[0].clientY;
                }else{
                    clientX = event.clientX;
                    clientY = event.clientY;
                }
                // console.log("thisbk =", thisbk, ", clientX =", parseInt(clientX), ", clientY =", parseInt(clientY));
                var AnsBoxXY = GetTranslateXY("AnsBox");

                var svg_x = clientX - g_dx - svgRect.left;
                var svg_y = clientY - g_dy - svgRect.top;
                // console.log("svg_x =", svg_x, ", svg_y =", svg_y);
                svg_x = svg_x - (AnsBoxXY[0] * svgScale[0]);
                svg_y = svg_y - (AnsBoxXY[1] * svgScale[1]);
                var svgstyle = window.getComputedStyle(svg);
                let startViewBox = svg.getAttribute('viewBox').split(' ').map(n => parseFloat(n))
                svg_x_off =  parseInt(svg_x / ( parseInt(svgstyle.width,10)/startViewBox[2]));
                svg_y_off =  parseInt(svg_y /  ( parseInt(svgstyle.height,10)/startViewBox[3]));
                // console.log("startViewBox =", startViewBox);
                // console.log("svg_x =", svg_x, ", svg_y =", svg_y);
                // console.log("svg_x =", svg_x, ", svg_y =", svg_y);
                // console.log("svg_x_off : "+svg_x_off, ", svg_y_off : "+svg_y_off );
                // console.log("target =", target);

                //***** 限制方塊可移範圍
                var lmov, rmov, tmov, bmov;
                var lint, rint, tint, bint;
                lint = rint = tint = bint = 0;
                lmov = rmov = tmov = bmov = 0;
                if(target[4] == 1) {
                    //禁止水平移動
                    lint = 0;
                    rint = 0;
                    if(target[0] <= 6) {
                        tint = 0;
                    } else {
                        for(var i = target[0] - 7; i >= 0; i-=7) {
                            // console.log("T i =", i, ", b_ary =", b_ary[i], ", b_ary =", b_ary);
                            //if(i == target[0]) continue;
                            if(b_ary[i] == 1) break;
                            tmov++;
                        }
                    }

                    if(target[0] >= 42) {
                        bint = 0;
                    } else {
                        for(var i = (target[0] + target[3] * 7); i <= 48; i+=7) {
                            // console.log("B i =", i, ", b_ary =", b_ary[i], ", b_ary =", b_ary);
                            //if(i == target[0]) continue;
                            if(b_ary[i] == 1) break;
                            bmov++;
                        }
                    }
                    //tint = tmov * 85 * svgScale[1];
                    //bint = bmov * 85 * svgScale[1];
                    tint = tmov * 85;
                    bint = bmov * 85;
                } else {
                    //禁止垂直移動
                    tint = 0;
                    bint = 0;
                    var templ = Math.floor(target[0] / 7) * 7;
                    var tempr = templ + 6;
                    // console.log("templ =", templ, ", tempr =", tempr);
                    if(target[0] == templ) {
                        lint = 0;
                    } else {
                        for(var i = target[0] - 1; i >= templ; i--) {
                            // console.log("L i =", i, ", b_ary =", b_ary[i], ", b_ary =", b_ary);
                            if(b_ary[i] == 1) break;
                            lmov++;
                        }
                    }

                    if(target[0] == tempr) {
                        rint = 0;
                    } else {
                        for(var i = target[0] + target[3]; i <= tempr; i++) {
                            // console.log("R i =", i, ", b_ary =", b_ary[i], ", b_ary =", b_ary);
                            if(b_ary[i] == 1) break;
                            rmov++;
                        }
                    }
                    //lint = lmov * 85 * svgScale[1];
                    //rint = rmov * 85 * svgScale[1];
                    lint = lmov * 85;
                    rint = rmov * 85;
                }
                // console.log("lint =", lint, ", rint =", rint, ", tint =", tint, ", bint =", bint);
                // console.log("lmov =", lmov, ", rmov =", rmov, ", tmov =", tmov, ", bmov =", bmov);

                if(svg_x_off >= (target[1] + rint)) svg_x_off = (target[1] + rint); 
                if(svg_x_off <= (target[1] - lint)) svg_x_off = (target[1] - lint);
                if(svg_y_off >= (target[2] + bint)) svg_y_off = (target[2] + bint);
                if(svg_y_off <= (target[2] - tint)) svg_y_off = (target[2] - tint);
                // console.log("org b_ary =", b_ary);  

                group.setAttribute("transform", "translate(" + (svg_x_off) + "," + (svg_y_off) + ")");
                // console.log("svg_x_off =", svg_x_off, ", svg_y_off =", svg_y_off);            
            }
        }
        function enddrag() {
            var ent = false;
            var offsetN = 40;
            // console.log("svg_x_off =", svg_x_off, ", svg_y_off =", svg_y_off);

            var tempx = Math.round(svg_x_off / 85);
            var tempy = Math.round(svg_y_off / 85);
            var tempb = tempx + tempy * 7;
            svg_x_off = 85 * tempx;
            svg_y_off = 85 * tempy;

            // console.log("svg_x_off =", svg_x_off, ", svg_y_off =", svg_y_off);
            group.setAttribute("transform", "translate(" + (svg_x_off) + "," + (svg_y_off) + ")");
            group.setAttribute("fx", svg_x_off);
            group.setAttribute("fy", svg_y_off);
            
            // console.log("tempx =", tempx, ", tempy =", tempy, ", tempb =", tempb);

            //更新格子狀態
            if(target[4] == 1) {
                for(var i = target[0]; i < target[0] + target[3] * 7; i+=7) {
                    b_ary[i] = 0;
                }
                for(var i = tempb; i < tempb + target[3] * 7; i+=7) {
                    b_ary[i] = 1;
                }
            } else {
                var templ = Math.floor(target[0] / 7) * 7;
                var tempr = templ + 6;
                for(var i = target[0]; i < target[0] + target[3]; i++) {
                    b_ary[i] = 0;
                }
                for(var i = tempb; i < tempb + target[3]; i++) {
                    b_ary[i] = 1;
                }
            }
            // console.log("b_ary =", b_ary);

            group.setAttribute("bn", tempb);
            target = [];

            var checkNum = parseInt(group.getAttribute("num"));
            if(checkNum == 0) {
                if(svg_x_off >= 390) {
                    group.setAttribute("transform", "translate(" + (svg_x_off + 85) + "," + (svg_y_off) + ")");
                    //答對
                    isEnd = false;
                    NowNo++;
                    if(NowNo >= QuesNo.length) {
                        if(WrongQues.length > 0) {
                            CheckWrongQues();
                        } else {
                            isEnd = true;
                        }
                    }
                    isAns = true;
                    isTimePause = true;
                    isQuit = false;
                    PlayOX(isAns, isQuit, isEnd);
                }
            }

            isDragging = false;

            document.removeEventListener('mousemove', moveActive);
            document.removeEventListener("touchmove", moveActive);
            document.removeEventListener('mouseup', enddrag);
            document.removeEventListener("touchend", enddrag);
        }
        function PlayAnimate(obj) {
            var AniObj = document.getElementById(obj);

            AniObj.querySelectorAll("animateTransform").forEach((element) => {
                element.beginElement();
            });
            AniObj.querySelectorAll("animate").forEach((element) => {
                element.beginElement();
            });
        }
        function InitGame() {
            // console.log("初始遊戲 === ");
            if(isTestMode) {
                isFirstGame = false;
                isBGM = false;
            }
            QuesData = window.parent.NowQues.Ques;
            QuesTitle = window.parent.QuesTitle;
            WrongQues = [];
            // console.log("in svg QuesData =", QuesData);
            // console.log("in svg QuesTitle =", QuesTitle);
            // console.log("in svg nowLv =", nowLv);
            // console.log("in svg nowSec =", nowSec);

            //按鈕事件
            ClickEvent();

            isStartGame = false;
            isTimePause = false;

            var GameClear = document.getElementById("GameClear");
            GameClear.setAttribute("style", "display: none;");
            
            var TitleText = document.getElementById("TitleText");
            var TitleTxt_1 = document.getElementById("TitleTxt_1");
            var TitleTxt_2 = document.getElementById("TitleTxt_2");
            if(QuesTitle.indexOf("\n") >= 0) {
                //顯示成兩行題目
                var quesTitle = QuesTitle.split("\n");
                TitleTxt_1.innerHTML = quesTitle[0];
                TitleTxt_2.innerHTML = quesTitle[1];
            } else {
                if(String(QuesTitle).length > 30) {
                    //題目太長，拆成兩行
                    var quesTitle_1 = String(QuesTitle).slice(0, 30);
                    var quesTitle_2 = String(QuesTitle).slice(30, String(QuesTitle).length);
                    TitleTxt_1.innerHTML = quesTitle_1;
                    TitleTxt_2.innerHTML = quesTitle_2;
                } else {
                    TitleTxt_1.innerHTML = QuesTitle;
                }
            }
            
            var QuesStart = document.getElementById("QuesStart");
            QuesStart.setAttribute("style", "display: block;");
            
            QuesNo = GetRandomAry(QuesData.length);
            NowNo = 0;

            SetClock();

            var StartBtn = document.getElementById("StartBtn");
            StartBtn.setAttribute("style", "display: block;");
        }
        function PlayOX(isans, isquit, isend) {
            isBlock = true;
            var top, left;
            if(isans) {
                top = 0.55;
                left = 0.34;
            } else {
                top = 0.55;
                left = 0.34;
            }
            window.parent.CallAnsFunc(isans, isquit, isend, top, left);
        }
        function PlayAudio(name) {
            var StartBtn = document.getElementById("StartBtn");
            var audio = QuesAudio[name];
            var vol = 1;
            // console.log("audio =", audio);
            switch(name) {
                case "bgm": //背景音樂
                            isBGM = true;
                            vol = BGMvol;
                            break;
                case "sound": //旁白
                            isSound = true;
                            StartBtn.setAttribute("style", "display: none;");
                            break;
            }
                      
        }
        function ResetGame() {
            // console.log("ResetGame ====");
            isAns = false;
            isEnd = false;
        }
        function StartGame() {
            // console.log("開始遊戲 === ");
            isStartGame = true;
            var QuesStart = document.getElementById("QuesStart");
            QuesStart.setAttribute("style", "display: none;");
            
            NewQues();

            Timer = setTimeout(TimerCount, 1000);
        }
        function GameClear() {
            var GameClear = document.getElementById("GameClear");
            GameClear.removeAttribute("style");
            var AnsBox = document.getElementById("AnsBox");
            //先清空
            while (AnsBox.lastElementChild) {
                AnsBox.removeChild(AnsBox.lastElementChild);
            }
            clearTimeout(Timer);
        }
        function CheckWrongQues() {
            QuesNo.length = 0;
            QuesNo = QuesNo.concat(WrongQues);
            WrongQues.length = 0;
            NowNo = 0;
        }
        function NextQues() {
            // console.log("NextQues === NowNo =", NowNo, ", QuesNo =", QuesNo);
            if(NowNo >= QuesNo.length) {
                // console.log("end ========== WrongQues =", WrongQues);     
                if(WrongQues.length > 0) {
                    CheckWrongQues();
                    NewQues();
                } else {
                    GameClear();
                }
            } else {
                NewQues();
            }
        }
        function NewQues() {
            // console.log("出新題目 === NowNo =", NowNo, ", No =", QuesNo[NowNo]);
            isAnd = false;
            isQuit = false;

            ResetGame();
            isTimePause = false;
            isBlock = false;

            boxn = 0;
            b_ary = [];
            //設置7*7陣列
            for(var i = 0; i < 49; i++) {
                b_ary.push(0);
            }

            NowQues = QuesData[QuesNo[NowNo] - 1];
            var AnsBox = document.getElementById("AnsBox");
            //先清空
            while (AnsBox.lastElementChild) {
                AnsBox.removeChild(AnsBox.lastElementChild);
            }
            
            for(var i = 0; i < NowQues.length; i++) {
                boxn++;
                var AnsObj = document.getElementById("AnsObj").cloneNode(true);
                AnsObj.setAttribute("id", "Ans_" + i);
                AnsObj.setAttribute("class", "ee-obj ee-anscontainer");
                var tempx = NowQues[i][0] / 80 * 85;
                var tempy = NowQues[i][1] / 80 * 85;
                AnsObj.setAttribute("transform", "translate(" + tempx + "," + tempy + ")");
                AnsObj.setAttribute("num", NowQues[i][2]);
                AnsObj.setAttribute("dir", NowQues[i][3]);
                AnsObj.setAttribute("fx", tempx);
                AnsObj.setAttribute("fy", tempy);
                AnsObj.setAttribute("ox", tempx);
                AnsObj.setAttribute("oy", tempy);

                var rect = AnsObj.querySelector("rect");                

                //格子狀態                
                var xn = NowQues[i][0] / 80;
                var yn = NowQues[i][1] / 80;
                var bn = 7 * yn + xn;
                AnsObj.setAttribute("bn", bn);
                AnsObj.setAttribute("on", bn);
                if(NowQues[i][2] == 1) {
                    b_ary[bn] = 1;
                    rect.setAttribute("width", NowQues[i][2] * 80);
                    rect.setAttribute("height", NowQues[i][2] * 80);
                } else {
                    if(NowQues[i][2] == 0) {
                        b_ary[bn] = 1;
                        b_ary[bn + 1] = 1;                        
                        rect.setAttribute("width", 2 * 80);
                        rect.setAttribute("height", 1 * 80);
                    } else {
                        if(NowQues[i][3] == 1) {
                            for(var j = 0; j < NowQues[i][2]; j++) {
                                b_ary[bn + j * 7] = 1;
                            }                            
                            rect.setAttribute("width", 1 * 80);
                            rect.setAttribute("height", NowQues[i][2] * 80);
                        } else {
                            for(var j = 0; j < NowQues[i][2]; j++) {
                                b_ary[bn + j] = 1;
                            }                            
                            rect.setAttribute("width", NowQues[i][2] * 80);
                            rect.setAttribute("height", 1 * 80);
                        }
                    }
                }

                var obj = (NowQues[i][2] == 0 || NowQues[i][2] == 1 ? "BrickClip" + NowQues[i][2] : "BrickClip" + NowQues[i][2] + "_" + NowQues[i][3]);
                var image = AnsObj.querySelector("use");
                var tempx = document.getElementById(obj).querySelector("rect").getAttribute("x");
                var tempy = document.getElementById(obj).querySelector("rect").getAttribute("y");
                var scale = 1.195;
                image.setAttribute("transform", "scale(" + scale + ") translate(-" + tempx + ",-" + tempy + ")");
                image.setAttribute("clip-path", "url(#" + obj + ")");

                AnsBox.appendChild(AnsObj);
            }

            DragEvent();
        }
        function ResetBrick() {
            var Ans = document.querySelectorAll(".ee-anscontainer");
            for(var i = 0; i < 49; i++) {
                b_ary[i] = 0;
            }
            for(i = 0; i < Ans.length; i++) {
                var tempn = parseInt(Ans[i].getAttribute("num"));
                var tempd = parseInt(Ans[i].getAttribute("dir"));
                var tempx = parseInt(Ans[i].getAttribute("ox"));
                var tempy = parseInt(Ans[i].getAttribute("oy"));
                var tempb = parseInt(Ans[i].getAttribute("on"));
                Ans[i].setAttribute("transform", "translate(" + tempx + "," + tempy + ")");
                Ans[i].setAttribute("bn", tempb);
                Ans[i].setAttribute("fx", tempx);
                Ans[i].setAttribute("fy", tempy);
                // console.log("tempn =", tempn, ", tempd =", tempd, ", tempx =", tempx, ", tempy =", tempy, ", tempb =", tempb);

                if(tempn == 1) {
                    b_ary[tempb] = 1;
                } else {
                    if(tempn == 0) {
                        b_ary[tempb] = 1;
                        b_ary[tempb + 1] = 1;
                    } else {
                        if(tempd == 1) {
                            for(var j = 0; j < tempn; j++) {
                                b_ary[tempb + j * 7] = 1;
                            }
                        } else {
                            for(var j = 0; j < tempn; j++) {
                                b_ary[tempb + j] = 1;
                            }
                        }
                    }
                }
            }
            // console.log("b_ary =", b_ary);
        }
        function TimerCount() {
            Timer = setTimeout(TimerCount, 1000);
            if(isTimePause) return;

            if(nowSec > 0) {
                nowSec--;
            }
            SetClock();
            
            if(nowSec == 0) {
                clearTimeout(Timer);
                isAns = false;
                isQuit = false;
                isEnd = true;
                PlayOX(isAns, isQuit, isEnd);
            }
        }
        function SetClock() {
            var SecTxt = document.getElementById("SecTxt");
            SecTxt.innerHTML = nowSec;
        }
        function EndOfGame() {
            isStartGame = false;
            clearTimeout(Timer);
        }
        function Leave() {
            EndOfGame();
        }
        function SwitchBGMFunc(io) {
            var bgmOff = document.querySelector("#BGMBtn > .bgmOff");
            var bgmOn = document.querySelector("#BGMBtn > .bgmOn");

            if(isBGM) {
                bgmOff.setAttribute("display", "none");
                bgmOn.setAttribute("display", "block");
            } else {
                bgmOff.setAttribute("display", "block");
                bgmOn.setAttribute("display", "none");
            }
            window.parent.SwitchBGMFunc(isBGM, BGMvol);
        }
        function GetRandomAry(n) {
            var ary = [];
            while(n) {
                ary.splice(Math.random() * (ary.length + 1), 0, n--);
            }

            return ary;
        }
    ]]></script>
</svg>